<?xml version="1.0" encoding="UTF-8"?><svg xmlns="http://www.w3.org/2000/svg" xmlns:xlink="http://www.w3.org/1999/xlink" fill-opacity="1" color-rendering="auto" color-interpolation="auto" text-rendering="auto" stroke="black" stroke-linecap="square" width="185" stroke-miterlimit="10" shape-rendering="auto" stroke-opacity="1" fill="black" stroke-dasharray="none" font-weight="normal" stroke-width="1" height="192" font-family="'Dialog'" font-style="normal" stroke-linejoin="miter" font-size="12" stroke-dashoffset="0" image-rendering="auto">
  <!--Generated by ySVG 2.5-->
  <defs id="genericDefs"/>
  <g>
    <defs id="defs1">
      <clipPath clipPathUnits="userSpaceOnUse" id="clipPath1">
        <path d="M0 0 L185 0 L185 192 L0 192 L0 0 Z"/>
      </clipPath>
      <clipPath clipPathUnits="userSpaceOnUse" id="clipPath2">
        <path d="M33 34 L218 34 L218 226 L33 226 L33 34 Z"/>
      </clipPath>
    </defs>
    <g fill="white" text-rendering="geometricPrecision" shape-rendering="geometricPrecision" transform="translate(-33,-34)" stroke="white">
      <rect x="33" width="185" height="192" y="34" clip-path="url(#clipPath2)" stroke="none"/>
    </g>
    <g text-rendering="geometricPrecision" stroke-miterlimit="1.45" shape-rendering="geometricPrecision" font-family="sans-serif" transform="matrix(1,0,0,1,-33,-34)" stroke-linecap="butt">
      <text x="138.7447" xml:space="preserve" y="58.9543" clip-path="url(#clipPath2)" stroke="none">1</text>
      <circle fill="none" r="15" clip-path="url(#clipPath2)" cx="142.5621" cy="54.8"/>
      <text x="193.479" xml:space="preserve" y="134.2897" clip-path="url(#clipPath2)" stroke="none">2</text>
      <circle fill="none" r="15" clip-path="url(#clipPath2)" cx="197.2964" cy="130.1354"/>
      <text x="50.1826" xml:space="preserve" y="87.7299" clip-path="url(#clipPath2)" stroke="none">3</text>
      <circle fill="none" r="15" clip-path="url(#clipPath2)" cx="54" cy="83.5756"/>
      <text x="50.1826" xml:space="preserve" y="180.8495" clip-path="url(#clipPath2)" stroke="none">4</text>
      <circle fill="none" r="15" clip-path="url(#clipPath2)" cx="54" cy="176.6952"/>
      <text x="138.7447" xml:space="preserve" y="209.6251" clip-path="url(#clipPath2)" stroke="none">5</text>
      <circle fill="none" r="15" clip-path="url(#clipPath2)" cx="142.5621" cy="205.4708"/>
      <path fill="none" d="M128.2962 59.4353 L78.7275 75.5411" clip-path="url(#clipPath2)"/>
      <path d="M68.2658 78.9403 L81.5326 80.9384 L77.8244 69.5258 Z" clip-path="url(#clipPath2)" stroke="none"/>
      <path fill="none" d="M183.0306 125.5001 L78.7275 91.61" clip-path="url(#clipPath2)"/>
      <path d="M68.2659 88.2108 L77.8244 97.6254 L81.5326 86.2127 Z" clip-path="url(#clipPath2)" stroke="none"/>
      <path fill="none" d="M54 98.5756 L54 150.6952" clip-path="url(#clipPath2)"/>
      <path d="M54 161.6952 L60 149.6952 L48 149.6952 Z" clip-path="url(#clipPath2)" stroke="none"/>
      <path fill="none" d="M188.4796 142.2706 L157.8445 184.4363" clip-path="url(#clipPath2)"/>
      <path d="M151.3788 193.3355 L163.2864 187.154 L153.5782 180.1006 Z" clip-path="url(#clipPath2)" stroke="none"/>
    </g>
  </g>
</svg>
