<?xml version="1.0" encoding="UTF-8"?><svg xmlns="http://www.w3.org/2000/svg" xmlns:xlink="http://www.w3.org/1999/xlink" fill-opacity="1" color-rendering="auto" color-interpolation="auto" text-rendering="auto" stroke="black" stroke-linecap="square" width="226" stroke-miterlimit="10" shape-rendering="auto" stroke-opacity="1" fill="black" stroke-dasharray="none" font-weight="normal" stroke-width="1" height="234" font-family="'Dialog'" font-style="normal" stroke-linejoin="miter" font-size="12" stroke-dashoffset="0" image-rendering="auto">
  <!--Generated by ySVG 2.5-->
  <defs id="genericDefs"/>
  <g>
    <defs id="defs1">
      <clipPath clipPathUnits="userSpaceOnUse" id="clipPath1">
        <path d="M0 0 L226 0 L226 234 L0 234 L0 0 Z"/>
      </clipPath>
      <clipPath clipPathUnits="userSpaceOnUse" id="clipPath2">
        <path d="M13 13 L239 13 L239 247 L13 247 L13 13 Z"/>
      </clipPath>
    </defs>
    <g fill="white" text-rendering="geometricPrecision" shape-rendering="geometricPrecision" transform="translate(-13,-13)" stroke="white">
      <rect x="13" width="226" height="234" y="13" clip-path="url(#clipPath2)" stroke="none"/>
    </g>
    <g text-rendering="geometricPrecision" stroke-miterlimit="1.45" shape-rendering="geometricPrecision" font-family="sans-serif" transform="matrix(1,0,0,1,-13,-13)" stroke-linecap="butt">
      <text x="138.8853" xml:space="preserve" y="58.9543" clip-path="url(#clipPath2)" stroke="none">a</text>
      <circle fill="none" r="15" clip-path="url(#clipPath2)" cx="142.5621" cy="54.8"/>
      <text x="193.4878" xml:space="preserve" y="134.2897" clip-path="url(#clipPath2)" stroke="none">b</text>
      <circle fill="none" r="15" clip-path="url(#clipPath2)" cx="197.2964" cy="130.1354"/>
      <text x="139.2632" xml:space="preserve" y="209.6251" clip-path="url(#clipPath2)" stroke="none">c</text>
      <circle fill="none" r="15" clip-path="url(#clipPath2)" cx="142.5621" cy="205.4708"/>
      <text x="50.3086" xml:space="preserve" y="87.7299" clip-path="url(#clipPath2)" stroke="none">e</text>
      <circle fill="none" r="15" clip-path="url(#clipPath2)" cx="54" cy="83.5756"/>
      <text x="50.1914" xml:space="preserve" y="180.8495" clip-path="url(#clipPath2)" stroke="none">d</text>
      <circle fill="none" r="15" clip-path="url(#clipPath2)" cx="54" cy="176.6952"/>
      <path fill="none" d="M150.0621 39.8 L150.0621 24.8 L156.0621 18.8 L172.5621 18.8 L178.5621 24.8 L178.5621 41.3 L172.5621 47.3 L168.5621 47.3" clip-path="url(#clipPath2)" stroke="rgb(158,158,158)"/>
      <path fill="rgb(158,158,158)" d="M157.5621 47.3 L169.5621 53.3 L169.5621 41.3 Z" clip-path="url(#clipPath2)" stroke="none"/>
      <path fill="none" d="M151.3788 66.9353 L182.014 109.1009" clip-path="url(#clipPath2)" stroke="rgb(158,158,158)"/>
      <path fill="rgb(158,158,158)" d="M188.4796 118.0001 L186.2803 104.7652 L176.5721 111.8186 Z" clip-path="url(#clipPath2)" stroke="none"/>
      <path fill="none" d="M204.7964 115.1354 L204.7964 100.1354 L210.7964 94.1354 L227.2964 94.1354 L233.2964 100.1354 L233.2964 116.6354 L227.2964 122.6354 L223.2964 122.6354" clip-path="url(#clipPath2)" stroke="rgb(161,161,161)"/>
      <path fill="rgb(161,161,161)" d="M212.2964 122.6354 L224.2964 128.6354 L224.2964 116.6354 Z" clip-path="url(#clipPath2)" stroke="none"/>
      <path fill="none" d="M183.86 123.5509 L151.1799 78.5706" clip-path="url(#clipPath2)" stroke="rgb(166,166,166)"/>
      <path fill="rgb(166,166,166)" d="M144.7143 69.6714 L146.9136 82.9063 L156.6218 75.8529 Z" clip-path="url(#clipPath2)" stroke="none"/>
      <path fill="none" d="M142.5621 69.8 L142.5621 179.4708" clip-path="url(#clipPath2)" stroke="rgb(163,163,163)"/>
      <path fill="rgb(163,163,163)" d="M142.5621 190.4708 L148.5621 178.4708 L136.5621 178.4708 Z" clip-path="url(#clipPath2)" stroke="none"/>
      <path fill="none" d="M188.4796 142.2706 L157.8445 184.4363" clip-path="url(#clipPath2)" stroke="rgb(157,157,157)"/>
      <path fill="rgb(157,157,157)" d="M151.3788 193.3355 L163.2864 187.154 L153.5782 180.1006 Z" clip-path="url(#clipPath2)" stroke="none"/>
      <path fill="none" d="M150.0621 220.4708 L150.0621 235.4708 L156.0621 241.4708 L172.5621 241.4708 L178.5621 235.4708 L178.5621 218.9708 L172.5621 212.9708 L168.5621 212.9708" clip-path="url(#clipPath2)" stroke="rgb(167,167,167)"/>
      <path fill="rgb(167,167,167)" d="M157.5621 212.9708 L169.5621 218.9708 L169.5621 206.9708 Z" clip-path="url(#clipPath2)" stroke="none"/>
      <path fill="none" d="M135.5621 192.1914 L135.5621 79.0494" clip-path="url(#clipPath2)" stroke="rgb(161,161,161)"/>
      <path fill="rgb(161,161,161)" d="M135.5621 68.0494 L129.5621 80.0494 L141.5621 80.0494 Z" clip-path="url(#clipPath2)" stroke="none"/>
      <path fill="none" d="M144.6801 190.6465 L177.3912 145.6234" clip-path="url(#clipPath2)" stroke="rgb(164,164,164)"/>
      <path fill="rgb(164,164,164)" d="M183.8569 136.7242 L171.9493 142.9057 L181.6575 149.9592 Z" clip-path="url(#clipPath2)" stroke="none"/>
      <path fill="none" d="M128.2962 59.4353 L78.7275 75.5411" clip-path="url(#clipPath2)" stroke="rgb(169,169,169)"/>
      <path fill="rgb(169,169,169)" d="M68.2658 78.9403 L81.5326 80.9384 L77.8244 69.5258 Z" clip-path="url(#clipPath2)" stroke="none"/>
      <path fill="none" d="M183.0306 125.5001 L78.7275 91.61" clip-path="url(#clipPath2)" stroke="rgb(157,157,157)"/>
      <path fill="rgb(157,157,157)" d="M68.2659 88.2108 L77.8244 97.6254 L81.5326 86.2127 Z" clip-path="url(#clipPath2)" stroke="none"/>
      <path fill="none" d="M133.7453 193.3355 L69.2824 104.61" clip-path="url(#clipPath2)" stroke="rgb(166,166,166)"/>
      <path fill="rgb(166,166,166)" d="M62.8168 95.7108 L65.0161 108.9457 L74.7243 101.8923 Z" clip-path="url(#clipPath2)" stroke="none"/>
      <path fill="none" d="M46.5 68.5756 L46.5 53.5756 L40.5 47.5756 L24 47.5756 L18 53.5756 L18 70.0756 L24 76.0756 L28 76.0756" clip-path="url(#clipPath2)" stroke="rgb(165,165,165)"/>
      <path fill="rgb(165,165,165)" d="M39 76.0756 L27 70.0756 L27 82.0756 Z" clip-path="url(#clipPath2)" stroke="none"/>
      <path fill="none" d="M64.4216 72.8291 L117.3346 55.6367" clip-path="url(#clipPath2)" stroke="rgb(161,161,161)"/>
      <path fill="rgb(161,161,161)" d="M127.7963 52.2375 L114.5295 50.2393 L118.2377 61.652 Z" clip-path="url(#clipPath2)" stroke="none"/>
      <path fill="none" d="M68.7984 81.0236 L176.3881 115.9816" clip-path="url(#clipPath2)" stroke="rgb(167,167,167)"/>
      <path fill="rgb(167,167,167)" d="M186.8497 119.3808 L177.2911 109.9663 L173.5829 121.3789 Z" clip-path="url(#clipPath2)" stroke="none"/>
      <path fill="none" d="M67.4741 90.2119 L133.9747 181.7421" clip-path="url(#clipPath2)" stroke="rgb(166,166,166)"/>
      <path fill="rgb(166,166,166)" d="M140.4403 190.6413 L138.241 177.4064 L128.5328 184.4598 Z" clip-path="url(#clipPath2)" stroke="none"/>
      <path fill="none" d="M133.7453 66.9353 L69.2824 155.6608" clip-path="url(#clipPath2)" stroke="rgb(162,162,162)"/>
      <path fill="rgb(162,162,162)" d="M62.8168 164.56 L74.7243 158.3785 L65.0161 151.325 Z" clip-path="url(#clipPath2)" stroke="none"/>
      <path fill="none" d="M183.0306 134.7706 L78.7275 168.6608" clip-path="url(#clipPath2)" stroke="rgb(172,172,172)"/>
      <path fill="rgb(172,172,172)" d="M68.2658 172.06 L81.5326 174.0581 L77.8244 162.6454 Z" clip-path="url(#clipPath2)" stroke="none"/>
      <path fill="none" d="M128.2962 200.8355 L78.7275 184.7297" clip-path="url(#clipPath2)" stroke="rgb(155,155,155)"/>
      <path fill="rgb(155,155,155)" d="M68.2658 181.3305 L77.8244 190.745 L81.5326 179.3323 Z" clip-path="url(#clipPath2)" stroke="none"/>
      <path fill="none" d="M54 98.5756 L54 150.6952" clip-path="url(#clipPath2)" stroke="rgb(160,160,160)"/>
      <path fill="rgb(160,160,160)" d="M54 161.6952 L60 149.6952 L48 149.6952 Z" clip-path="url(#clipPath2)" stroke="none"/>
      <path fill="none" d="M46.5 191.6952 L46.5 206.6952 L40.5 212.6952 L24 212.6952 L18 206.6952 L18 190.1952 L24 184.1952 L28 184.1952" clip-path="url(#clipPath2)" stroke="rgb(164,164,164)"/>
      <path fill="rgb(164,164,164)" d="M39 184.1952 L27 178.1952 L27 190.1952 Z" clip-path="url(#clipPath2)" stroke="none"/>
      <path fill="none" d="M56.1367 161.8452 L122.6401 70.3111" clip-path="url(#clipPath2)" stroke="rgb(162,162,162)"/>
      <path fill="rgb(162,162,162)" d="M129.1057 61.4119 L117.1982 67.5934 L126.9064 74.6468 Z" clip-path="url(#clipPath2)" stroke="none"/>
      <path fill="none" d="M64.4604 165.9362 L172.0788 130.9688" clip-path="url(#clipPath2)" stroke="rgb(157,157,157)"/>
      <path fill="rgb(157,157,157)" d="M182.5405 127.5696 L169.2737 125.5715 L172.9819 136.9842 Z" clip-path="url(#clipPath2)" stroke="none"/>
      <path fill="none" d="M68.7459 174.1262 L121.6119 191.3034" clip-path="url(#clipPath2)" stroke="rgb(171,171,171)"/>
      <path fill="rgb(171,171,171)" d="M132.0735 194.7026 L122.515 185.2881 L118.8068 196.7007 Z" clip-path="url(#clipPath2)" stroke="none"/>
      <path fill="none" d="M47 163.4639 L47 107.8773" clip-path="url(#clipPath2)" stroke="rgb(164,164,164)"/>
      <path fill="rgb(164,164,164)" d="M47 96.8773 L41 108.8773 L53 108.8773 Z" clip-path="url(#clipPath2)" stroke="none"/>
    </g>
  </g>
</svg>
