<?xml version="1.0" encoding="UTF-8" standalone="no"?>
<svg
   xmlns:dc="http://purl.org/dc/elements/1.1/"
   xmlns:cc="http://creativecommons.org/ns#"
   xmlns:rdf="http://www.w3.org/1999/02/22-rdf-syntax-ns#"
   xmlns:svg="http://www.w3.org/2000/svg"
   xmlns="http://www.w3.org/2000/svg"
   xmlns:sodipodi="http://sodipodi.sourceforge.net/DTD/sodipodi-0.dtd"
   xmlns:inkscape="http://www.inkscape.org/namespaces/inkscape"
   color-rendering="auto"
   color-interpolation="auto"
   text-rendering="auto"
   width="421.94391"
   stroke-miterlimit="10"
   shape-rendering="auto"
   font-weight="normal"
   height="184.98535"
   font-style="normal"
   font-size="12"
   image-rendering="auto"
   id="svg3046"
   version="1.1"
   inkscape:version="0.48.3.1 r9886"
   sodipodi:docname="exemploMorfismoRegular.svg"
   style="font-size:12px;font-style:normal;font-weight:normal;fill:#000000;fill-opacity:1;stroke:#000000;stroke-width:1;stroke-linecap:square;stroke-linejoin:miter;stroke-miterlimit:10;stroke-opacity:1;stroke-dasharray:none;stroke-dashoffset:0;font-family:Dialog">
  <metadata
     id="metadata3154">
    <rdf:RDF>
      <cc:Work
         rdf:about="">
        <dc:format>image/svg+xml</dc:format>
        <dc:type
           rdf:resource="http://purl.org/dc/dcmitype/StillImage" />
      </cc:Work>
    </rdf:RDF>
  </metadata>
  <sodipodi:namedview
     pagecolor="#ffffff"
     bordercolor="#666666"
     borderopacity="1"
     objecttolerance="10"
     gridtolerance="10"
     guidetolerance="10"
     inkscape:pageopacity="0"
     inkscape:pageshadow="2"
     inkscape:window-width="727"
     inkscape:window-height="564"
     id="namedview3152"
     showgrid="false"
     fit-margin-top="2"
     fit-margin-left="2"
     fit-margin-right="2"
     fit-margin-bottom="2"
     inkscape:zoom="1.07"
     inkscape:cx="262.27865"
     inkscape:cy="79.889726"
     inkscape:window-x="355"
     inkscape:window-y="25"
     inkscape:window-maximized="0"
     inkscape:current-layer="svg3046" />
  <!--Generated by ySVG 2.5-->
  <defs
     id="genericDefs">
    <marker
       inkscape:stockid="Arrow1Mend"
       orient="auto"
       refY="0"
       refX="0"
       id="Arrow1Mend"
       style="overflow:visible">
      <path
         id="path4269"
         d="M 0,0 5,-5 -12.5,0 5,5 0,0 z"
         style="fill-rule:evenodd;stroke:#000000;stroke-width:1pt"
         transform="matrix(-0.4,0,0,-0.4,-4,0)"
         inkscape:connector-curvature="0" />
    </marker>
    <inkscape:path-effect
       effect="spiro"
       id="path-effect4074"
       is_visible="true" />
    <defs
       id="defs1">
      <clipPath
         id="clipPath1"
         clipPathUnits="userSpaceOnUse">
        <path
           id="path3053"
           d="M 0,0 422,0 422,164 0,164 0,0 z"
           inkscape:connector-curvature="0" />
      </clipPath>
      <clipPath
         id="clipPath2"
         clipPathUnits="userSpaceOnUse">
        <path
           id="path3056"
           d="m 23,94 422,0 0,164 -422,0 0,-164 z"
           inkscape:connector-curvature="0" />
      </clipPath>
    </defs>
  </defs>
  <g
     id="g4304"
     transform="translate(9.5420561,103.96665)">
    <g
       id="g5452"
       style="font-size:12px;font-style:normal;font-weight:normal;fill:#000000;fill-opacity:1;stroke:#000000;stroke-width:1;stroke-linecap:square;stroke-linejoin:miter;stroke-miterlimit:10;stroke-opacity:1;stroke-dasharray:none;stroke-dashoffset:0;font-family:Dialog"
       transform="translate(138.06309,-49.874306)">
      <path
         inkscape:connector-curvature="0"
         inkscape:original-d="m 155.14019,61.5 50.46729,0"
         inkscape:path-effect="#path-effect4074"
         id="path4072"
         d="m 155.14019,61.5 50.46729,0"
         style="fill:none;stroke:#000000;stroke-width:2;stroke-miterlimit:7.86250019;stroke-opacity:1;stroke-dasharray:6, 6;stroke-dashoffset:0;marker-start:none;marker-end:url(#Arrow1Mend)" />
      <text
         sodipodi:linespacing="125%"
         id="text5448"
         y="51.710281"
         x="177.18341"
         style="font-size:20px;font-style:normal;font-weight:normal;line-height:125%;letter-spacing:0px;word-spacing:0px;fill:#000000;fill-opacity:1;stroke:none;font-family:Sans;-inkscape-font-specification:Sans"
         xml:space="preserve"><tspan
           y="51.710281"
           x="177.18341"
           id="tspan5450"
           sodipodi:role="line">f</tspan></text>
    </g>
    <g
       id="g4211">
      <g
         style="font-size:12px;font-style:normal;font-weight:normal;fill:#000000;fill-opacity:1;stroke:#000000;stroke-width:1;stroke-linecap:square;stroke-linejoin:miter;stroke-miterlimit:10;stroke-opacity:1;stroke-dasharray:none;stroke-dashoffset:0;font-family:Dialog"
         id="g3198"
         transform="translate(68.595641,-50.237423)">
        <text
           sodipodi:linespacing="125%"
           id="text3153"
           y="-36.885479"
           x="57.660091"
           style="font-size:20px;font-style:normal;font-weight:normal;line-height:125%;letter-spacing:0px;word-spacing:0px;fill:#000000;fill-opacity:1;stroke:none;font-family:Sans;-inkscape-font-specification:Sans"
           xml:space="preserve"><tspan
             y="-36.885479"
             x="57.660091"
             id="tspan3155"
             sodipodi:role="line">G</tspan></text>
        <text
           sodipodi:linespacing="125%"
           id="text3161"
           y="-36.885479"
           x="73.199158"
           style="font-size:12px;font-style:normal;font-weight:normal;line-height:125%;letter-spacing:0px;word-spacing:0px;baseline-shift:sub;fill:#000000;fill-opacity:1;stroke:none;font-family:Sans;-inkscape-font-specification:Sans"
           xml:space="preserve"><tspan
             y="-36.885479"
             x="73.199158"
             id="tspan3163"
             sodipodi:role="line">1</tspan></text>
      </g>
      <g
         id="g4170">
        <g
           transform="translate(-13.899539,-80.616821)"
           id="g3346">
          <circle
             r="15"
             clip-path="url(#clipPath2)"
             cx="150"
             cy="124"
             id="circle3064"
             d="m 165,124 c 0,8.28427 -6.71573,15 -15,15 -8.28427,0 -15,-6.71573 -15,-15 0,-8.28427 6.71573,-15 15,-15 8.28427,0 15,6.71573 15,15 z"
             sodipodi:cx="150"
             sodipodi:cy="124"
             sodipodi:rx="15"
             sodipodi:ry="15"
             style="fill:none;stroke-linecap:butt;stroke-miterlimit:1.45000005"
             transform="translate(-23,-94)" />
          <rect
             x="98"
             width="30"
             height="30"
             y="161"
             clip-path="url(#clipPath2)"
             id="rect3066"
             style="fill:none;stroke-linecap:butt;stroke-miterlimit:1.45000005"
             transform="translate(-23,-94)" />
          <path
             d="m 161.5,176 15,-15 15,15 -15,15 z"
             clip-path="url(#clipPath2)"
             id="path3068"
             inkscape:connector-curvature="0"
             style="fill:none;stroke-linecap:butt;stroke-miterlimit:1.45000005"
             transform="translate(-23,-94)" />
          <circle
             r="15"
             clip-path="url(#clipPath2)"
             cx="83"
             cy="224.75"
             id="circle3070"
             d="m 98,224.75 c 0,8.28427 -6.715729,15 -15,15 -8.284271,0 -15,-6.71573 -15,-15 0,-8.28427 6.715729,-15 15,-15 8.284271,0 15,6.71573 15,15 z"
             sodipodi:cx="83"
             sodipodi:cy="224.75"
             sodipodi:rx="15"
             sodipodi:ry="15"
             style="fill:none;stroke-linecap:butt;stroke-miterlimit:1.45000005"
             transform="translate(-23,-94)" />
          <circle
             r="15"
             clip-path="url(#clipPath2)"
             cx="53"
             cy="176"
             id="circle3072"
             d="m 68,176 c 0,8.28427 -6.715729,15 -15,15 -8.284271,0 -15,-6.71573 -15,-15 0,-8.28427 6.715729,-15 15,-15 8.284271,0 15,6.71573 15,15 z"
             sodipodi:cx="53"
             sodipodi:cy="176"
             sodipodi:rx="15"
             sodipodi:ry="15"
             style="fill:none;stroke-linecap:butt;stroke-miterlimit:1.45000005"
             transform="translate(-23,-94)" />
          <circle
             r="15"
             clip-path="url(#clipPath2)"
             cx="150"
             cy="224.75"
             id="circle3074"
             d="m 165,224.75 c 0,8.28427 -6.71573,15 -15,15 -8.28427,0 -15,-6.71573 -15,-15 0,-8.28427 6.71573,-15 15,-15 8.28427,0 15,6.71573 15,15 z"
             sodipodi:cx="150"
             sodipodi:cy="224.75"
             sodipodi:rx="15"
             sodipodi:ry="15"
             style="fill:none;stroke-linecap:butt;stroke-miterlimit:1.45000005"
             transform="translate(-23,-94)" />
          <circle
             r="15"
             clip-path="url(#clipPath2)"
             cx="83"
             cy="124"
             id="circle3076"
             d="m 98,124 c 0,8.28427 -6.715729,15 -15,15 -8.284271,0 -15,-6.71573 -15,-15 0,-8.28427 6.715729,-15 15,-15 8.284271,0 15,6.71573 15,15 z"
             sodipodi:cx="83"
             sodipodi:cy="124"
             sodipodi:rx="15"
             sodipodi:ry="15"
             style="fill:none;stroke-linecap:butt;stroke-miterlimit:1.45000005"
             transform="translate(-23,-94)" />
          <rect
             x="221.5"
             width="30"
             height="30"
             y="213"
             clip-path="url(#clipPath2)"
             id="rect3078"
             style="fill:none;stroke-linecap:butt;stroke-miterlimit:1.45000005"
             transform="translate(-23,-94)" />
          <rect
             x="221.5"
             width="30"
             height="30"
             y="109"
             clip-path="url(#clipPath2)"
             id="rect3080"
             style="fill:none;stroke-linecap:butt;stroke-miterlimit:1.45000005"
             transform="translate(-23,-94)" />
          <circle
             r="15"
             clip-path="url(#clipPath2)"
             cx="296.5"
             cy="176"
             id="circle3082"
             d="m 311.5,176 c 0,8.28427 -6.71573,15 -15,15 -8.28427,0 -15,-6.71573 -15,-15 0,-8.28427 6.71573,-15 15,-15 8.28427,0 15,6.71573 15,15 z"
             sodipodi:cx="296.5"
             sodipodi:cy="176"
             sodipodi:rx="15"
             sodipodi:ry="15"
             style="fill:none;stroke-linecap:butt;stroke-miterlimit:1.45000005"
             transform="translate(-23,-94)" />
          <path
             d="m 281.5,228 15,-15 15,15 -15,15 z"
             clip-path="url(#clipPath2)"
             id="path3090"
             inkscape:connector-curvature="0"
             style="fill:none;stroke-linecap:butt;stroke-miterlimit:1.45000005"
             transform="translate(-23,-94)" />
          <circle
             r="15"
             clip-path="url(#clipPath2)"
             cx="296.5"
             cy="124"
             id="circle3092"
             d="m 311.5,124 c 0,8.28427 -6.71573,15 -15,15 -8.28427,0 -15,-6.71573 -15,-15 0,-8.28427 6.71573,-15 15,-15 8.28427,0 15,6.71573 15,15 z"
             sodipodi:cx="296.5"
             sodipodi:cy="124"
             sodipodi:rx="15"
             sodipodi:ry="15"
             style="fill:none;stroke-linecap:butt;stroke-miterlimit:1.45000005"
             transform="translate(-23,-94)" />
          <path
             d="m 221.5,176 15,-15 15,15 -15,15 z"
             clip-path="url(#clipPath2)"
             id="path3094"
             inkscape:connector-curvature="0"
             style="fill:none;stroke-linecap:butt;stroke-miterlimit:1.45000005"
             transform="translate(-23,-94)" />
          <path
             d="m 141.3037,136.2219 -11.2533,15.8154"
             clip-path="url(#clipPath2)"
             id="path3096"
             inkscape:connector-curvature="0"
             style="fill:none;stroke-linecap:butt;stroke-miterlimit:1.45000005"
             transform="translate(-23,-94)" />
          <path
             d="m 123.6731,161 11.8458,-6.299 -9.7775,-6.957 z"
             clip-path="url(#clipPath2)"
             id="path3098"
             inkscape:connector-curvature="0"
             style="stroke:none"
             transform="translate(-23,-94)" />
          <path
             d="m 128,176 22.4858,0"
             clip-path="url(#clipPath2)"
             id="path3100"
             inkscape:connector-curvature="0"
             style="fill:none;stroke-linecap:butt;stroke-miterlimit:1.45000005"
             transform="translate(-23,-94)" />
          <path
             d="m 161.4858,176 -12,-6 0,12 z"
             clip-path="url(#clipPath2)"
             id="path3102"
             inkscape:connector-curvature="0"
             style="stroke:none"
             transform="translate(-23,-94)" />
          <path
             d="m 90.8615,211.9751 7.1427,-11.6069"
             clip-path="url(#clipPath2)"
             id="path3104"
             inkscape:connector-curvature="0"
             style="fill:none;stroke-linecap:butt;stroke-miterlimit:1.45000005"
             transform="translate(-23,-94)" />
          <path
             d="m 103.7692,191 -11.3991,7.0753 10.2199,6.2892 z"
             clip-path="url(#clipPath2)"
             id="path3106"
             inkscape:connector-curvature="0"
             style="stroke:none"
             transform="translate(-23,-94)" />
          <path
             d="m 68,176 19,0"
             clip-path="url(#clipPath2)"
             id="path3108"
             inkscape:connector-curvature="0"
             style="fill:none;stroke-linecap:butt;stroke-miterlimit:1.45000005"
             transform="translate(-23,-94)" />
          <path
             d="m 98,176 -12,-6 0,12 z"
             clip-path="url(#clipPath2)"
             id="path3110"
             inkscape:connector-curvature="0"
             style="stroke:none"
             transform="translate(-23,-94)" />
          <path
             d="m 140.9315,212.8017 -9.8967,-13.0396"
             clip-path="url(#clipPath2)"
             id="path3112"
             inkscape:connector-curvature="0"
             style="fill:none;stroke-linecap:butt;stroke-miterlimit:1.45000005"
             transform="translate(-23,-94)" />
          <path
             d="m 124.3846,191 2.4755,13.1861 9.5586,-7.2548 z"
             clip-path="url(#clipPath2)"
             id="path3114"
             inkscape:connector-curvature="0"
             style="stroke:none"
             transform="translate(-23,-94)" />
          <path
             d="m 90.4958,136.9928 8.3534,14.4792"
             clip-path="url(#clipPath2)"
             id="path3116"
             inkscape:connector-curvature="0"
             style="fill:none;stroke-linecap:butt;stroke-miterlimit:1.45000005"
             transform="translate(-23,-94)" />
          <path
             d="m 104.3462,161 -0.7996,-13.3926 -10.3942,5.9967 z"
             clip-path="url(#clipPath2)"
             id="path3118"
             inkscape:connector-curvature="0"
             style="stroke:none"
             transform="translate(-23,-94)" />
          <path
             d="M 285.1647,166.176 259.8126,144.2042"
             clip-path="url(#clipPath2)"
             id="path3120"
             inkscape:connector-curvature="0"
             style="fill:none;stroke-linecap:butt;stroke-miterlimit:1.45000005"
             transform="translate(-23,-94)" />
          <path
             d="m 251.5,137 5.1387,12.3933 7.8592,-9.0683 z"
             clip-path="url(#clipPath2)"
             id="path3122"
             inkscape:connector-curvature="0"
             style="stroke:none"
             transform="translate(-23,-94)" />
          <path
             d="m 285.1647,185.824 -25.3521,21.9718"
             clip-path="url(#clipPath2)"
             id="path3124"
             inkscape:connector-curvature="0"
             style="fill:none;stroke-linecap:butt;stroke-miterlimit:1.45000005"
             transform="translate(-23,-94)" />
          <path
             d="m 251.5,215 12.9979,-3.325 -7.8592,-9.0683 z"
             clip-path="url(#clipPath2)"
             id="path3126"
             inkscape:connector-curvature="0"
             style="stroke:none"
             transform="translate(-23,-94)" />
          <path
             d="m 251.5,228 19.0146,0"
             clip-path="url(#clipPath2)"
             id="path3136"
             inkscape:connector-curvature="0"
             style="fill:none;stroke-linecap:butt;stroke-miterlimit:1.45000005"
             transform="translate(-23,-94)" />
          <path
             d="m 281.5146,228 -12,-6 0,12 z"
             clip-path="url(#clipPath2)"
             id="path3138"
             inkscape:connector-curvature="0"
             style="stroke:none"
             transform="translate(-23,-94)" />
          <path
             d="m 281.5,124 -19,0"
             clip-path="url(#clipPath2)"
             id="path3140"
             inkscape:connector-curvature="0"
             style="fill:none;stroke-linecap:butt;stroke-miterlimit:1.45000005"
             transform="translate(-23,-94)" />
          <path
             d="m 251.5,124 12,6 0,-12 z"
             clip-path="url(#clipPath2)"
             id="path3142"
             inkscape:connector-curvature="0"
             style="stroke:none"
             transform="translate(-23,-94)" />
          <path
             d="m 236.5,213 0,-11.0049"
             clip-path="url(#clipPath2)"
             id="path3144"
             inkscape:connector-curvature="0"
             style="fill:none;stroke-linecap:butt;stroke-miterlimit:1.45000005"
             transform="translate(-23,-94)" />
          <path
             d="m 236.5,190.9951 -6,12 12,0 z"
             clip-path="url(#clipPath2)"
             id="path3146"
             inkscape:connector-curvature="0"
             style="stroke:none"
             transform="translate(-23,-94)" />
          <path
             d="m 236.5,139 0,11.0049"
             clip-path="url(#clipPath2)"
             id="path3148"
             inkscape:connector-curvature="0"
             style="fill:none;stroke-linecap:butt;stroke-miterlimit:1.45000005"
             transform="translate(-23,-94)" />
          <path
             d="m 236.5,161.0049 6,-12 -12,0 z"
             clip-path="url(#clipPath2)"
             id="path3150"
             inkscape:connector-curvature="0"
             style="stroke:none"
             transform="translate(-23,-94)" />
        </g>
        <rect
           y="-75.252342"
           x="-6.5420561"
           height="153.27104"
           width="288.78503"
           id="rect3394"
           style="fill:none;stroke:#000000;stroke-width:2;stroke-miterlimit:7.86250019;stroke-opacity:1;stroke-dasharray:none;stroke-dashoffset:0" />
      </g>
    </g>
    <g
       transform="translate(8,0)"
       id="g4287">
      <g
         style="font-size:12px;font-style:normal;font-weight:normal;fill:#000000;fill-opacity:1;stroke:#000000;stroke-width:1;stroke-linecap:square;stroke-linejoin:miter;stroke-miterlimit:10;stroke-opacity:1;stroke-dasharray:none;stroke-dashoffset:0;font-family:Dialog"
         id="g3192"
         transform="translate(72.805933,-92.853082)">
        <text
           sodipodi:linespacing="125%"
           id="text3153-0"
           y="5.7301803"
           x="290.41257"
           style="font-size:20px;font-style:normal;font-weight:normal;line-height:125%;letter-spacing:0px;word-spacing:0px;fill:#000000;fill-opacity:1;stroke:none;font-family:Sans;-inkscape-font-specification:Sans"
           xml:space="preserve"><tspan
             y="5.7301803"
             x="290.41257"
             id="tspan3155-3"
             sodipodi:role="line">G</tspan></text>
        <text
           sodipodi:linespacing="125%"
           id="text3161-8"
           y="5.7301803"
           x="305.95163"
           style="font-size:12px;font-style:normal;font-weight:normal;line-height:125%;letter-spacing:0px;word-spacing:0px;baseline-shift:sub;fill:#000000;fill-opacity:1;stroke:none;font-family:Sans;-inkscape-font-specification:Sans"
           xml:space="preserve"><tspan
             y="5.7301803"
             x="305.95163"
             id="tspan3163-6"
             sodipodi:role="line">2</tspan></text>
      </g>
      <g
         id="g4276">
        <g
           transform="translate(-16.733648,-80.616821)"
           id="g3385">
          <circle
             r="15"
             clip-path="url(#clipPath2)"
             cx="414.5"
             cy="124"
             id="circle3084"
             d="m 429.5,124 c 0,8.28427 -6.71573,15 -15,15 -8.28427,0 -15,-6.71573 -15,-15 0,-8.28427 6.71573,-15 15,-15 8.28427,0 15,6.71573 15,15 z"
             sodipodi:cx="414.5"
             sodipodi:cy="124"
             sodipodi:rx="15"
             sodipodi:ry="15"
             style="fill:none;stroke-linecap:butt;stroke-miterlimit:1.45000005"
             transform="translate(-23,-94)" />
          <rect
             x="399.5"
             width="30"
             height="30"
             y="161"
             clip-path="url(#clipPath2)"
             id="rect3086"
             style="fill:none;stroke-linecap:butt;stroke-miterlimit:1.45000005"
             transform="translate(-23,-94)" />
          <path
             d="m 399.5,228 15,-15 15,15 -15,15 z"
             clip-path="url(#clipPath2)"
             id="path3088"
             inkscape:connector-curvature="0"
             style="fill:none;stroke-linecap:butt;stroke-miterlimit:1.45000005"
             transform="translate(-23,-94)" />
          <path
             d="m 414.5,139 0,11"
             clip-path="url(#clipPath2)"
             id="path3128"
             inkscape:connector-curvature="0"
             style="fill:none;stroke-linecap:butt;stroke-miterlimit:1.45000005"
             transform="translate(-23,-94)" />
          <path
             d="m 414.5,161 6,-12 -12,0 z"
             clip-path="url(#clipPath2)"
             id="path3130"
             inkscape:connector-curvature="0"
             style="stroke:none"
             transform="translate(-23,-94)" />
          <path
             d="m 414.5,191 0,11.0049"
             clip-path="url(#clipPath2)"
             id="path3132"
             inkscape:connector-curvature="0"
             style="fill:none;stroke-linecap:butt;stroke-miterlimit:1.45000005"
             transform="translate(-23,-94)" />
          <path
             d="m 414.5,213.0049 6,-12 -12,0 z"
             clip-path="url(#clipPath2)"
             id="path3134"
             inkscape:connector-curvature="0"
             style="stroke:none"
             transform="translate(-23,-94)" />
        </g>
        <rect
           y="-75.252342"
           x="348.13086"
           height="153.27104"
           width="53.270985"
           id="rect3394-2"
           style="fill:none;stroke:#000000;stroke-width:2;stroke-miterlimit:7.86250019;stroke-opacity:1;stroke-dasharray:none;stroke-dashoffset:0" />
      </g>
    </g>
  </g>
</svg>
