<?xml version="1.0" encoding="UTF-8"?><svg xmlns="http://www.w3.org/2000/svg" xmlns:xlink="http://www.w3.org/1999/xlink" fill-opacity="1" color-rendering="auto" color-interpolation="auto" text-rendering="auto" stroke="black" stroke-linecap="square" width="225" stroke-miterlimit="10" shape-rendering="auto" stroke-opacity="1" fill="black" stroke-dasharray="none" font-weight="normal" stroke-width="1" height="132" font-family="'Dialog'" font-style="normal" stroke-linejoin="miter" font-size="12" stroke-dashoffset="0" image-rendering="auto">
  <!--Generated by ySVG 2.5-->
  <defs id="genericDefs"/>
  <g>
    <defs id="defs1">
      <clipPath clipPathUnits="userSpaceOnUse" id="clipPath1">
        <path d="M0 0 L225 0 L225 132 L0 132 L0 0 Z"/>
      </clipPath>
      <clipPath clipPathUnits="userSpaceOnUse" id="clipPath2">
        <path d="M171 213 L396 213 L396 345 L171 345 L171 213 Z"/>
      </clipPath>
    </defs>
    <g fill="white" text-rendering="geometricPrecision" shape-rendering="geometricPrecision" transform="translate(-171,-213)" stroke="white">
      <rect x="171" width="225" height="132" y="213" clip-path="url(#clipPath2)" stroke="none"/>
    </g>
    <g text-rendering="geometricPrecision" stroke-miterlimit="1.45" shape-rendering="geometricPrecision" font-family="sans-serif" transform="matrix(1,0,0,1,-171,-213)" stroke-linecap="butt">
      <text x="197.1826" xml:space="preserve" y="307.1543" clip-path="url(#clipPath2)" stroke="none">1</text>
      <circle fill="none" r="15" clip-path="url(#clipPath2)" cx="201" cy="303"/>
      <text x="269.1826" xml:space="preserve" y="307.1543" clip-path="url(#clipPath2)" stroke="none">2</text>
      <circle fill="none" r="15" clip-path="url(#clipPath2)" cx="273" cy="303"/>
      <text x="341.1826" xml:space="preserve" y="307.1543" clip-path="url(#clipPath2)" stroke="none">3</text>
      <circle fill="none" r="15" clip-path="url(#clipPath2)" cx="345" cy="303"/>
      <text x="197.1826" xml:space="preserve" y="247.1543" clip-path="url(#clipPath2)" stroke="none">4</text>
      <circle fill="none" r="15" clip-path="url(#clipPath2)" cx="201" cy="243"/>
      <path fill="none" d="M216 303 L247 303" clip-path="url(#clipPath2)"/>
      <path d="M258 303 L246 297 L246 309 Z" clip-path="url(#clipPath2)" stroke="none"/>
      <text x="228.125" xml:space="preserve" y="296.1699" clip-path="url(#clipPath2)" stroke="none">b</text>
      <path fill="none" d="M214.2539 310 L248.719 310" clip-path="url(#clipPath2)"/>
      <path d="M259.719 310 L247.719 304 L247.719 316 Z" clip-path="url(#clipPath2)" stroke="none"/>
      <text x="228.125" xml:space="preserve" y="325.1387" clip-path="url(#clipPath2)" stroke="none">a</text>
      <path fill="none" d="M288 303 L319 303" clip-path="url(#clipPath2)"/>
      <path d="M330 303 L318 297 L318 309 Z" clip-path="url(#clipPath2)" stroke="none"/>
      <text x="300.125" xml:space="preserve" y="296.1699" clip-path="url(#clipPath2)" stroke="none">c</text>
      <path fill="none" d="M352.5 288 L352.5 273 L358.5 267 L375 267 L381 273 L381 289.5 L375 295.5 L371 295.5" clip-path="url(#clipPath2)"/>
      <path d="M360 295.5 L372 301.5 L372 289.5 Z" clip-path="url(#clipPath2)" stroke="none"/>
      <text x="364.3828" xml:space="preserve" y="260.1699" clip-path="url(#clipPath2)" stroke="none">d</text>
    </g>
  </g>
</svg>
