<?xml version="1.0" encoding="UTF-8" standalone="no"?>
<svg
   xmlns:dc="http://purl.org/dc/elements/1.1/"
   xmlns:cc="http://creativecommons.org/ns#"
   xmlns:rdf="http://www.w3.org/1999/02/22-rdf-syntax-ns#"
   xmlns:svg="http://www.w3.org/2000/svg"
   xmlns="http://www.w3.org/2000/svg"
   xmlns:sodipodi="http://sodipodi.sourceforge.net/DTD/sodipodi-0.dtd"
   xmlns:inkscape="http://www.inkscape.org/namespaces/inkscape"
   fill-opacity="1"
   color-rendering="auto"
   color-interpolation="auto"
   text-rendering="auto"
   stroke="black"
   stroke-linecap="square"
   width="506"
   stroke-miterlimit="10"
   shape-rendering="auto"
   stroke-opacity="1"
   fill="black"
   stroke-dasharray="none"
   font-weight="normal"
   stroke-width="1"
   height="311"
   font-family="'Dialog'"
   font-style="normal"
   stroke-linejoin="miter"
   font-size="12"
   stroke-dashoffset="0"
   image-rendering="auto"
   id="svg2"
   version="1.1"
   inkscape:version="0.48.3.1 r9886"
   sodipodi:docname="faceHom.svg">
  <metadata
     id="metadata330">
    <rdf:RDF>
      <cc:Work
         rdf:about="">
        <dc:format>image/svg+xml</dc:format>
        <dc:type
           rdf:resource="http://purl.org/dc/dcmitype/StillImage" />
      </cc:Work>
    </rdf:RDF>
  </metadata>
  <sodipodi:namedview
     pagecolor="#ffffff"
     bordercolor="#666666"
     borderopacity="1"
     objecttolerance="10"
     gridtolerance="10"
     guidetolerance="10"
     inkscape:pageopacity="0"
     inkscape:pageshadow="2"
     inkscape:window-width="1029"
     inkscape:window-height="778"
     id="namedview328"
     showgrid="false"
     inkscape:zoom="1.3359684"
     inkscape:cx="231.15836"
     inkscape:cy="123.26764"
     inkscape:window-x="0"
     inkscape:window-y="25"
     inkscape:window-maximized="0"
     inkscape:current-layer="svg2" />
  <!--Generated by ySVG 2.5-->
  <defs
     id="genericDefs">
    <defs
       id="defs1">
      <clipPath
         id="clipPath1"
         clipPathUnits="userSpaceOnUse">
        <path
           id="path9"
           d="M0 0 L506 0 L506 311 L0 311 L0 0 Z" />
      </clipPath>
      <clipPath
         id="clipPath2"
         clipPathUnits="userSpaceOnUse">
        <path
           id="path12"
           d="M-15 -15 L491 -15 L491 296 L-15 296 L-15 -15 Z" />
      </clipPath>
    </defs>
  </defs>
  <g
     style="fill:#ffffff;stroke:#ffffff"
     id="g14"
     transform="translate(15,15)"
     shape-rendering="geometricPrecision"
     text-rendering="geometricPrecision">
    <rect
       style="stroke:none"
       id="rect16"
       clip-path="url(#clipPath2)"
       y="-15"
       height="311"
       width="506"
       x="-15" />
  </g>
  <g
     style="stroke-linecap:butt;stroke-miterlimit:1.45000005;font-family:sans-serif"
     id="g18"
     transform="translate(15,15)"
     shape-rendering="geometricPrecision"
     stroke-miterlimit="1.45"
     text-rendering="geometricPrecision">
    <text
       style="stroke:none"
       id="text20"
       clip-path="url(#clipPath2)"
       y="202.5233"
       xml:space="preserve"
       x="11.1826">1</text>
    <circle
       style="fill:none"
       sodipodi:ry="15"
       sodipodi:rx="15"
       sodipodi:cy="198.369"
       sodipodi:cx="15"
       d="m 30,198.369 c 0,8.28427 -6.715729,15 -15,15 -8.2842712,0 -15,-6.71573 -15,-15 0,-8.28427 6.7157288,-15 15,-15 8.284271,0 15,6.71573 15,15 z"
       id="circle22"
       cy="198.369"
       cx="15"
       clip-path="url(#clipPath2)"
       r="15" />
    <text
       style="stroke:none"
       id="text24"
       clip-path="url(#clipPath2)"
       y="86.123703"
       xml:space="preserve"
       x="11.1826">2</text>
    <circle
       style="fill:none"
       sodipodi:ry="15"
       sodipodi:rx="15"
       sodipodi:cy="81.969398"
       sodipodi:cx="15"
       d="m 30,81.969398 c 0,8.284272 -6.715729,15 -15,15 -8.2842712,0 -15,-6.715728 -15,-15 0,-8.284271 6.7157288,-15 15,-15 8.284271,0 15,6.715729 15,15 z"
       id="circle26"
       cy="81.969398"
       cx="15"
       clip-path="url(#clipPath2)"
       r="15" />
    <text
       style="stroke:none"
       id="text28"
       clip-path="url(#clipPath2)"
       y="144.3235"
       xml:space="preserve"
       x="190.3031">3</text>
    <circle
       style="fill:none"
       sodipodi:ry="15"
       sodipodi:rx="15"
       sodipodi:cy="140.1692"
       sodipodi:cx="194.1205"
       d="m 209.1205,140.1692 c 0,8.28428 -6.71573,15 -15,15 -8.28427,0 -15,-6.71572 -15,-15 0,-8.28427 6.71573,-15 15,-15 8.28427,0 15,6.71573 15,15 z"
       id="circle30"
       cy="140.1692"
       cx="194.1205"
       clip-path="url(#clipPath2)"
       r="15" />
    <text
       style="stroke:none"
       id="text32"
       clip-path="url(#clipPath2)"
       y="50.154301"
       xml:space="preserve"
       x="121.8852">4</text>
    <circle
       style="fill:none"
       sodipodi:ry="15"
       sodipodi:rx="15"
       sodipodi:cy="46"
       sodipodi:cx="125.7026"
       d="m 140.7026,46 c 0,8.284271 -6.71573,15 -15,15 -8.28427,0 -15,-6.715729 -15,-15 0,-8.284271 6.71573,-15 15,-15 8.28427,0 15,6.715729 15,15 z"
       id="circle34"
       cy="46"
       cx="125.7026"
       clip-path="url(#clipPath2)"
       r="15" />
    <text
       style="stroke:none"
       id="text36"
       clip-path="url(#clipPath2)"
       y="238.4928"
       xml:space="preserve"
       x="121.8852">5</text>
    <circle
       style="fill:none"
       sodipodi:ry="15"
       sodipodi:rx="15"
       sodipodi:cy="234.3385"
       sodipodi:cx="125.7026"
       d="m 140.7026,234.3385 c 0,8.28427 -6.71573,15 -15,15 -8.28427,0 -15,-6.71573 -15,-15 0,-8.28427 6.71573,-15 15,-15 8.28427,0 15,6.71573 15,15 z"
       id="circle38"
       cy="234.3385"
       cx="125.7026"
       clip-path="url(#clipPath2)"
       r="15" />
    <circle
       style="stroke:none"
       sodipodi:ry="2.5"
       sodipodi:rx="2.5"
       sodipodi:cy="233.369"
       sodipodi:cx="175.7704"
       d="m 178.2704,233.369 c 0,1.38072 -1.11929,2.5 -2.5,2.5 -1.38071,0 -2.5,-1.11928 -2.5,-2.5 0,-1.38071 1.11929,-2.5 2.5,-2.5 1.38071,0 2.5,1.11929 2.5,2.5 z"
       id="circle40"
       stroke-miterlimit="10"
       cy="233.369"
       cx="175.7704"
       r="2.5"
       clip-path="url(#clipPath2)" />
    <circle
       style="fill:none"
       sodipodi:ry="2.5"
       sodipodi:rx="2.5"
       sodipodi:cy="233.369"
       sodipodi:cx="175.7704"
       d="m 178.2704,233.369 c 0,1.38072 -1.11929,2.5 -2.5,2.5 -1.38071,0 -2.5,-1.11928 -2.5,-2.5 0,-1.38071 1.11929,-2.5 2.5,-2.5 1.38071,0 2.5,1.11929 2.5,2.5 z"
       id="circle42"
       cy="233.369"
       cx="175.7704"
       clip-path="url(#clipPath2)"
       r="2.5" />
    <circle
       style="stroke:none"
       sodipodi:ry="2.5"
       sodipodi:rx="2.5"
       sodipodi:cy="233.369"
       sodipodi:cx="275.77039"
       d="m 278.27039,233.369 c 0,1.38072 -1.11929,2.5 -2.5,2.5 -1.38072,0 -2.5,-1.11928 -2.5,-2.5 0,-1.38071 1.11928,-2.5 2.5,-2.5 1.38071,0 2.5,1.11929 2.5,2.5 z"
       id="circle44"
       stroke-miterlimit="10"
       cy="233.369"
       cx="275.77039"
       r="2.5"
       clip-path="url(#clipPath2)" />
    <circle
       style="fill:none"
       sodipodi:ry="2.5"
       sodipodi:rx="2.5"
       sodipodi:cy="233.369"
       sodipodi:cx="275.77039"
       d="m 278.27039,233.369 c 0,1.38072 -1.11929,2.5 -2.5,2.5 -1.38072,0 -2.5,-1.11928 -2.5,-2.5 0,-1.38071 1.11928,-2.5 2.5,-2.5 1.38071,0 2.5,1.11929 2.5,2.5 z"
       id="circle46"
       cy="233.369"
       cx="275.77039"
       clip-path="url(#clipPath2)"
       r="2.5" />
    <circle
       style="stroke:none"
       sodipodi:ry="2.5"
       sodipodi:rx="2.5"
       sodipodi:cy="255.869"
       sodipodi:cx="175.7704"
       d="m 178.2704,255.869 c 0,1.38072 -1.11929,2.5 -2.5,2.5 -1.38071,0 -2.5,-1.11928 -2.5,-2.5 0,-1.38071 1.11929,-2.5 2.5,-2.5 1.38071,0 2.5,1.11929 2.5,2.5 z"
       id="circle48"
       stroke-miterlimit="10"
       cy="255.869"
       cx="175.7704"
       r="2.5"
       clip-path="url(#clipPath2)" />
    <circle
       style="fill:none"
       sodipodi:ry="2.5"
       sodipodi:rx="2.5"
       sodipodi:cy="255.869"
       sodipodi:cx="175.7704"
       d="m 178.2704,255.869 c 0,1.38072 -1.11929,2.5 -2.5,2.5 -1.38071,0 -2.5,-1.11928 -2.5,-2.5 0,-1.38071 1.11929,-2.5 2.5,-2.5 1.38071,0 2.5,1.11929 2.5,2.5 z"
       id="circle50"
       cy="255.869"
       cx="175.7704"
       clip-path="url(#clipPath2)"
       r="2.5" />
    <circle
       style="stroke:none"
       sodipodi:ry="2.5"
       sodipodi:rx="2.5"
       sodipodi:cy="255.869"
       sodipodi:cx="275.77039"
       d="m 278.27039,255.869 c 0,1.38072 -1.11929,2.5 -2.5,2.5 -1.38072,0 -2.5,-1.11928 -2.5,-2.5 0,-1.38071 1.11928,-2.5 2.5,-2.5 1.38071,0 2.5,1.11929 2.5,2.5 z"
       id="circle52"
       stroke-miterlimit="10"
       cy="255.869"
       cx="275.77039"
       r="2.5"
       clip-path="url(#clipPath2)" />
    <circle
       style="fill:none"
       sodipodi:ry="2.5"
       sodipodi:rx="2.5"
       sodipodi:cy="255.869"
       sodipodi:cx="275.77039"
       d="m 278.27039,255.869 c 0,1.38072 -1.11929,2.5 -2.5,2.5 -1.38072,0 -2.5,-1.11928 -2.5,-2.5 0,-1.38071 1.11928,-2.5 2.5,-2.5 1.38071,0 2.5,1.11929 2.5,2.5 z"
       id="circle54"
       cy="255.869"
       cx="275.77039"
       clip-path="url(#clipPath2)"
       r="2.5" />
    <circle
       style="stroke:none"
       sodipodi:ry="2.5"
       sodipodi:rx="2.5"
       sodipodi:cy="278.36899"
       sodipodi:cx="175.7704"
       d="m 178.2704,278.36899 c 0,1.38071 -1.11929,2.5 -2.5,2.5 -1.38071,0 -2.5,-1.11929 -2.5,-2.5 0,-1.38071 1.11929,-2.5 2.5,-2.5 1.38071,0 2.5,1.11929 2.5,2.5 z"
       id="circle56"
       stroke-miterlimit="10"
       cy="278.36899"
       cx="175.7704"
       r="2.5"
       clip-path="url(#clipPath2)" />
    <circle
       style="fill:none"
       sodipodi:ry="2.5"
       sodipodi:rx="2.5"
       sodipodi:cy="278.36899"
       sodipodi:cx="175.7704"
       d="m 178.2704,278.36899 c 0,1.38071 -1.11929,2.5 -2.5,2.5 -1.38071,0 -2.5,-1.11929 -2.5,-2.5 0,-1.38071 1.11929,-2.5 2.5,-2.5 1.38071,0 2.5,1.11929 2.5,2.5 z"
       id="circle58"
       cy="278.36899"
       cx="175.7704"
       clip-path="url(#clipPath2)"
       r="2.5" />
    <circle
       style="stroke:none"
       sodipodi:ry="2.5"
       sodipodi:rx="2.5"
       sodipodi:cy="278.36899"
       sodipodi:cx="275.77039"
       d="m 278.27039,278.36899 c 0,1.38071 -1.11929,2.5 -2.5,2.5 -1.38072,0 -2.5,-1.11929 -2.5,-2.5 0,-1.38071 1.11928,-2.5 2.5,-2.5 1.38071,0 2.5,1.11929 2.5,2.5 z"
       id="circle60"
       stroke-miterlimit="10"
       cy="278.36899"
       cx="275.77039"
       r="2.5"
       clip-path="url(#clipPath2)" />
    <circle
       style="fill:none"
       sodipodi:ry="2.5"
       sodipodi:rx="2.5"
       sodipodi:cy="278.36899"
       sodipodi:cx="275.77039"
       d="m 278.27039,278.36899 c 0,1.38071 -1.11929,2.5 -2.5,2.5 -1.38072,0 -2.5,-1.11929 -2.5,-2.5 0,-1.38071 1.11928,-2.5 2.5,-2.5 1.38071,0 2.5,1.11929 2.5,2.5 z"
       id="circle62"
       cy="278.36899"
       cx="275.77039"
       clip-path="url(#clipPath2)"
       r="2.5" />
    <text
       style="stroke:none"
       id="text64"
       clip-path="url(#clipPath2)"
       y="202.5233"
       xml:space="preserve"
       x="277.8031">1</text>
    <circle
       style="fill:none"
       sodipodi:ry="15"
       sodipodi:rx="15"
       sodipodi:cy="198.369"
       sodipodi:cx="281.62051"
       d="m 296.62051,198.369 c 0,8.28427 -6.71572,15 -15,15 -8.28427,0 -15,-6.71573 -15,-15 0,-8.28427 6.71573,-15 15,-15 8.28428,0 15,6.71573 15,15 z"
       id="circle66"
       cy="198.369"
       cx="281.62051"
       clip-path="url(#clipPath2)"
       r="15" />
    <text
       style="stroke:none"
       id="text68"
       clip-path="url(#clipPath2)"
       y="86.123703"
       xml:space="preserve"
       x="277.8031">2</text>
    <circle
       style="fill:none"
       sodipodi:ry="15"
       sodipodi:rx="15"
       sodipodi:cy="81.969398"
       sodipodi:cx="281.62051"
       d="m 296.62051,81.969398 c 0,8.284272 -6.71572,15 -15,15 -8.28427,0 -15,-6.715728 -15,-15 0,-8.284271 6.71573,-15 15,-15 8.28428,0 15,6.715729 15,15 z"
       id="circle70"
       cy="81.969398"
       cx="281.62051"
       clip-path="url(#clipPath2)"
       r="15" />
    <text
       style="stroke:none"
       id="text72"
       clip-path="url(#clipPath2)"
       y="144.3235"
       xml:space="preserve"
       x="456.92361">3</text>
    <circle
       style="fill:none"
       sodipodi:ry="15"
       sodipodi:rx="15"
       sodipodi:cy="140.1692"
       sodipodi:cx="460.741"
       d="m 475.741,140.1692 c 0,8.28428 -6.71573,15 -15,15 -8.28427,0 -15,-6.71572 -15,-15 0,-8.28427 6.71573,-15 15,-15 8.28427,0 15,6.71573 15,15 z"
       id="circle74"
       cy="140.1692"
       cx="460.741"
       clip-path="url(#clipPath2)"
       r="15" />
    <text
       style="stroke:none"
       id="text76"
       clip-path="url(#clipPath2)"
       y="50.154301"
       xml:space="preserve"
       x="388.50571">4</text>
    <circle
       style="fill:none"
       sodipodi:ry="15"
       sodipodi:rx="15"
       sodipodi:cy="46"
       sodipodi:cx="392.32309"
       d="m 407.32309,46 c 0,8.284271 -6.71573,15 -15,15 -8.28427,0 -15,-6.715729 -15,-15 0,-8.284271 6.71573,-15 15,-15 8.28427,0 15,6.715729 15,15 z"
       id="circle78"
       cy="46"
       cx="392.32309"
       clip-path="url(#clipPath2)"
       r="15" />
    <text
       style="stroke:none"
       id="text80"
       clip-path="url(#clipPath2)"
       y="238.4928"
       xml:space="preserve"
       x="388.50571">5</text>
    <circle
       style="fill:none"
       sodipodi:ry="15"
       sodipodi:rx="15"
       sodipodi:cy="234.3385"
       sodipodi:cx="392.32309"
       d="m 407.32309,234.3385 c 0,8.28427 -6.71573,15 -15,15 -8.28427,0 -15,-6.71573 -15,-15 0,-8.28427 6.71573,-15 15,-15 8.28427,0 15,6.71573 15,15 z"
       id="circle82"
       cy="234.3385"
       cx="392.32309"
       clip-path="url(#clipPath2)"
       r="15" />
    <path
       style="fill:none;stroke-dasharray:6, 2"
       inkscape:connector-curvature="0"
       id="path84"
       clip-path="url(#clipPath2)"
       d="M 20.2774,184.3 109.2568,61.8305" />
    <path
       style="stroke:none"
       inkscape:connector-curvature="0"
       id="path86"
       clip-path="url(#clipPath2)"
       d="m 113.9591,55.3583 -11.0985,6.7693 5.8084,0.5119 2.2817,5.366 z" />
    <path
       style="fill:none;stroke-dasharray:6, 2"
       inkscape:connector-curvature="0"
       id="path88"
       clip-path="url(#clipPath2)"
       d="M 27.204,73.2725 103.0951,48.614" />
    <path
       style="stroke:none"
       inkscape:connector-curvature="0"
       id="path90"
       clip-path="url(#clipPath2)"
       d="m 110.7036,46.1419 -12.9578,-1.0471 4.3983,3.8282 -1.3081,5.6824 z" />
    <path
       style="fill:none"
       inkscape:connector-curvature="0"
       id="path92"
       clip-path="url(#clipPath2)"
       d="M 30,81.8272 105.8976,57.1666" />
    <path
       style="stroke:none"
       inkscape:connector-curvature="0"
       id="path94"
       clip-path="url(#clipPath2)"
       d="m 113.5061,54.6945 -12.9578,-1.0471 4.3983,3.8282 -1.3081,5.6823 z" />
    <path
       style="fill:none;stroke-dasharray:6, 2"
       inkscape:connector-curvature="0"
       id="path96"
       clip-path="url(#clipPath2)"
       d="M 185.3037,128.034 139.2216,64.6074" />
    <path
       style="stroke:none"
       inkscape:connector-curvature="0"
       id="path98"
       clip-path="url(#clipPath2)"
       d="m 134.5193,58.1353 3.0084,12.6471 2.2817,-5.366 5.8085,-0.5119 z" />
    <path
       style="fill:none"
       inkscape:connector-curvature="0"
       id="path100"
       clip-path="url(#clipPath2)"
       d="M 181.1752,132.5594 133.6286,67.1171" />
    <path
       style="stroke:none"
       inkscape:connector-curvature="0"
       id="path102"
       clip-path="url(#clipPath2)"
       d="m 128.9263,60.6449 3.0084,12.6472 2.2817,-5.366 5.8084,-0.5119 z" />
  </g>
  <g
     style="stroke-linecap:round;stroke-miterlimit:1.45000005;stroke-dasharray:0, 4;stroke-dashoffset:2"
     id="g104"
     stroke-miterlimit="1.45"
     shape-rendering="geometricPrecision"
     text-rendering="geometricPrecision"
     transform="translate(15,15)">
    <path
       style="fill:none"
       inkscape:connector-curvature="0"
       id="path106"
       clip-path="url(#clipPath2)"
       d="m 129.4526,31 0,-21.25 9.75,-9.75 22.75,0 9.75,9.75 0,22.75 -9.75,9.75 -13.25,0" />
    <path
       style="stroke:none"
       inkscape:connector-curvature="0"
       id="path108"
       clip-path="url(#clipPath2)"
       d="m 140.7026,42.25 12,5 -3,-5 3,-5 z" />
    <path
       style="fill:none;stroke-linecap:butt;stroke-dasharray:none;stroke-dashoffset:0"
       inkscape:connector-curvature="0"
       id="path110"
       clip-path="url(#clipPath2)"
       d="m 136.9526,31 0,-15 6,-6 12.75,0 6,6 0,12.75 -6,6 -7,0" />
    <path
       style="stroke:none"
       inkscape:connector-curvature="0"
       id="path112"
       clip-path="url(#clipPath2)"
       d="m 140.7026,34.75 12,5 -3,-5 3,-5 z" />
    <path
       style="fill:none;stroke-linecap:butt;stroke-dasharray:6, 2;stroke-dashoffset:0"
       inkscape:connector-curvature="0"
       id="path114"
       clip-path="url(#clipPath2)"
       d="m 133.2026,31 0,-18.125 7.875,-7.875 17.75,0 7.875,7.875 0,17.75 -7.875,7.875 -10.125,0" />
    <path
       style="stroke:none"
       inkscape:connector-curvature="0"
       id="path116"
       clip-path="url(#clipPath2)"
       d="m 140.7026,38.5 12,5 -3,-5 3,-5 z" />
    <path
       style="fill:none"
       inkscape:connector-curvature="0"
       id="path118"
       clip-path="url(#clipPath2)"
       d="M 120.4577,60.0242 31.444,182.541" />
    <path
       style="stroke:none"
       inkscape:connector-curvature="0"
       id="path120"
       clip-path="url(#clipPath2)"
       d="M 26.7417,189.0132 37.8402,182.2439 32.0318,181.732 29.75,176.3661 z" />
    <path
       style="fill:none"
       inkscape:connector-curvature="0"
       id="path122"
       clip-path="url(#clipPath2)"
       d="m 138.6479,53.6099 47.5466,65.4423" />
    <path
       style="stroke:none"
       inkscape:connector-curvature="0"
       id="path124"
       clip-path="url(#clipPath2)"
       d="m 190.8968,125.5243 -3.0084,-12.6471 -2.2817,5.3659 -5.8084,0.5119 z" />
    <path
       style="fill:none;stroke-linecap:butt;stroke-dasharray:6, 2;stroke-dashoffset:0"
       inkscape:connector-curvature="0"
       id="path126"
       clip-path="url(#clipPath2)"
       d="m 29.9852,198.5064 75.8911,24.6585" />
    <path
       style="stroke:none"
       inkscape:connector-curvature="0"
       id="path128"
       clip-path="url(#clipPath2)"
       d="m 113.4847,225.6371 -9.8675,-8.4635 1.308,5.6823 -4.3982,3.8282 z" />
    <path
       style="fill:none;stroke-linecap:butt;stroke-dasharray:6, 2;stroke-dashoffset:0"
       inkscape:connector-curvature="0"
       id="path130"
       clip-path="url(#clipPath2)"
       d="m 23.8168,94.1047 88.3667,121.6264" />
    <path
       style="stroke:none"
       inkscape:connector-curvature="0"
       id="path132"
       clip-path="url(#clipPath2)"
       d="m 116.8858,222.2032 -3.0083,-12.6471 -2.2818,5.3659 -5.8084,0.5119 z" />
    <path
       style="fill:none;stroke-linecap:butt;stroke-dasharray:none;stroke-dashoffset:0"
       inkscape:connector-curvature="0"
       id="path134"
       clip-path="url(#clipPath2)"
       d="m 27.9569,89.5953 89.8049,123.6059" />
    <path
       style="stroke:none"
       inkscape:connector-curvature="0"
       id="path136"
       clip-path="url(#clipPath2)"
       d="m 122.4641,219.6733 -3.0083,-12.6471 -2.2817,5.366 -5.8085,0.5119 z" />
    <path
       style="fill:none;stroke-linecap:butt;stroke-dasharray:6, 2;stroke-dashoffset:0"
       inkscape:connector-curvature="0"
       id="path138"
       clip-path="url(#clipPath2)"
       d="m 185.3037,152.3045 -46.0821,63.4266" />
    <path
       style="stroke:none"
       inkscape:connector-curvature="0"
       id="path140"
       clip-path="url(#clipPath2)"
       d="m 134.5193,222.2032 11.0986,-6.7693 -5.8085,-0.5119 -2.2817,-5.3659 z" />
    <path
       style="fill:none;stroke-linecap:butt;stroke-dasharray:none;stroke-dashoffset:0"
       inkscape:connector-curvature="0"
       id="path142"
       clip-path="url(#clipPath2)"
       d="m 190.8967,154.8142 -47.5741,65.4802" />
    <path
       style="stroke:none"
       inkscape:connector-curvature="0"
       id="path144"
       clip-path="url(#clipPath2)"
       d="m 138.6203,226.7666 11.0985,-6.7693 -5.8085,-0.5119 -2.2817,-5.366 z" />
    <path
       style="fill:none;stroke-linecap:butt;stroke-dasharray:none;stroke-dashoffset:0"
       inkscape:connector-curvature="0"
       id="path146"
       clip-path="url(#clipPath2)"
       d="m 127.7026,60.8519 0,150.6199" />
    <path
       style="stroke:none"
       inkscape:connector-curvature="0"
       id="path148"
       clip-path="url(#clipPath2)"
       d="m 127.7026,219.4718 5,-12 -5,3 -5,-3 z" />
    <path
       style="fill:none;stroke-linecap:butt;stroke-dasharray:none;stroke-dashoffset:0"
       inkscape:connector-curvature="0"
       id="path150"
       clip-path="url(#clipPath2)"
       d="m 121.9526,249.3385 0,21.25 -9.75,9.75 -22.75,0 -9.75,-9.75 0,-22.75 9.75,-9.75 13.25,0" />
    <path
       style="stroke:none"
       inkscape:connector-curvature="0"
       id="path152"
       clip-path="url(#clipPath2)"
       d="m 110.7026,238.0885 -12,-5 3,5 -3,5 z" />
    <path
       style="fill:none"
       inkscape:connector-curvature="0"
       id="path154"
       clip-path="url(#clipPath2)"
       d="m 114.4526,249.3385 0,15 -6,6 -12.75,0 -6,-6 0,-12.75 6,-6 7,0" />
    <path
       style="stroke:none"
       inkscape:connector-curvature="0"
       id="path156"
       clip-path="url(#clipPath2)"
       d="m 110.7026,245.5885 -12,-5 3,5 -3,5 z" />
    <path
       style="fill:none;stroke-linecap:butt;stroke-dasharray:6, 2;stroke-dashoffset:0"
       inkscape:connector-curvature="0"
       id="path158"
       clip-path="url(#clipPath2)"
       d="m 131.7026,59.7483 0,152.8224" />
    <path
       style="stroke:none"
       inkscape:connector-curvature="0"
       id="path160"
       clip-path="url(#clipPath2)"
       d="m 131.7026,220.5707 5,-12 -5,3 -5,-3 z" />
    <path
       style="fill:none"
       inkscape:connector-curvature="0"
       id="path162"
       clip-path="url(#clipPath2)"
       d="m 135.7026,57.1734 0,157.9625" />
    <path
       style="stroke:none"
       inkscape:connector-curvature="0"
       id="path164"
       clip-path="url(#clipPath2)"
       d="m 135.7026,223.1359 5,-12 -5,3 -5,-3 z" />
    <path
       style="fill:none;stroke-linecap:butt;stroke-dasharray:6, 2;stroke-dashoffset:0"
       inkscape:connector-curvature="0"
       id="path166"
       clip-path="url(#clipPath2)"
       d="m 118.2026,249.3385 0,18.125 -7.875,7.875 -17.75,0 -7.875,-7.875 0,-17.75 7.875,-7.875 10.125,0" />
    <path
       style="stroke:none"
       inkscape:connector-curvature="0"
       id="path168"
       clip-path="url(#clipPath2)"
       d="m 110.7026,241.8385 -12,-5 3,5 -3,5 z" />
    <path
       style="fill:none;stroke-linecap:butt;stroke-dasharray:none;stroke-dashoffset:0"
       inkscape:connector-curvature="0"
       id="path170"
       clip-path="url(#clipPath2)"
       d="m 115.7026,223.1651 0,-157.9625" />
    <path
       style="stroke:none"
       inkscape:connector-curvature="0"
       id="path172"
       clip-path="url(#clipPath2)"
       d="m 115.7026,57.2026 -5,12 5,-3 5,3 z" />
    <path
       style="fill:none"
       inkscape:connector-curvature="0"
       id="path174"
       clip-path="url(#clipPath2)"
       d="M 110.7026,234.1963 34.8049,209.5356" />
    <path
       style="stroke:none"
       inkscape:connector-curvature="0"
       id="path176"
       clip-path="url(#clipPath2)"
       d="m 27.1965,207.0635 9.8676,8.4634 -1.3081,-5.6823 4.3982,-3.8282 z" />
    <path
       style="fill:none"
       inkscape:connector-curvature="0"
       id="path178"
       clip-path="url(#clipPath2)"
       d="M 112.7456,226.7126 22.9407,103.1067" />
    <path
       style="stroke:none"
       inkscape:connector-curvature="0"
       id="path180"
       clip-path="url(#clipPath2)"
       d="m 18.2384,96.6346 3.0084,12.6471 2.2817,-5.366 5.8084,-0.5118 z" />
    <path
       style="fill:none"
       inkscape:connector-curvature="0"
       id="path182"
       clip-path="url(#clipPath2)"
       d="m 128.9264,219.6935 47.5741,-65.4802" />
    <path
       style="stroke:none"
       inkscape:connector-curvature="0"
       id="path184"
       clip-path="url(#clipPath2)"
       d="m 181.2028,147.7411 -11.0985,6.7693 5.8085,0.5119 2.2817,5.3659 z" />
    <path
       style="fill:none"
       inkscape:connector-curvature="0"
       id="path186"
       clip-path="url(#clipPath2)"
       d="m 123.7026,219.4866 0,-150.62" />
    <path
       style="stroke:none"
       inkscape:connector-curvature="0"
       id="path188"
       clip-path="url(#clipPath2)"
       d="m 123.7026,60.8666 -5,12 5,-3 5,3 z" />
    <path
       style="fill:none;stroke-linecap:butt;stroke-dasharray:6, 2;stroke-dashoffset:0"
       inkscape:connector-curvature="0"
       id="path190"
       clip-path="url(#clipPath2)"
       d="m 119.7026,220.5901 0,-152.8224" />
    <path
       style="stroke:none"
       inkscape:connector-curvature="0"
       id="path192"
       clip-path="url(#clipPath2)"
       d="m 119.7026,59.7677 -5,12 5,-3 5,3 z" />
    <path
       style="fill:none;stroke-linecap:butt;stroke-dasharray:none;stroke-dashoffset:0"
       inkscape:connector-curvature="0"
       id="path194"
       clip-path="url(#clipPath2)"
       d="m 178.2704,233.369 95,0" />
  </g>
  <g
     style="stroke-linecap:butt;stroke-miterlimit:1.45000005;font-family:sans-serif"
     id="g196"
     transform="translate(15,15)"
     shape-rendering="geometricPrecision"
     stroke-miterlimit="1.45"
     text-rendering="geometricPrecision">
    <text
       style="stroke:none"
       id="text198"
       clip-path="url(#clipPath2)"
       y="226.53889"
       xml:space="preserve"
       x="190.21581">Commenter</text>
    <path
       style="fill:none;stroke-dasharray:6, 2"
       inkscape:connector-curvature="0"
       id="path200"
       clip-path="url(#clipPath2)"
       d="m 178.2704,255.869 95,0" />
    <text
       style="stroke:none"
       id="text202"
       clip-path="url(#clipPath2)"
       y="249.03889"
       xml:space="preserve"
       x="211.1279">Liker</text>
  </g>
  <g
     style="stroke-linecap:round;stroke-miterlimit:1.45000005;stroke-dasharray:0, 4;stroke-dashoffset:2"
     id="g204"
     stroke-miterlimit="1.45"
     shape-rendering="geometricPrecision"
     text-rendering="geometricPrecision"
     transform="translate(15,15)">
    <path
       style="fill:none"
       inkscape:connector-curvature="0"
       id="path206"
       clip-path="url(#clipPath2)"
       d="m 178.2704,278.369 95,0" />
  </g>
  <text
     x="190.8954"
     xml:space="preserve"
     y="271.53891"
     clip-path="url(#clipPath2)"
     id="text210"
     style="stroke:none;font-family:sans-serif"
     transform="translate(15,15)">Post Author</text>
  <path
     d="M 286.8979,184.3 375.8773,61.8305"
     clip-path="url(#clipPath2)"
     id="path212"
     inkscape:connector-curvature="0"
     style="fill:none;stroke-linecap:butt;stroke-miterlimit:1.45000005;stroke-dasharray:6, 2;font-family:sans-serif"
     transform="translate(15,15)" />
  <path
     d="m 380.5796,55.3584 -11.0985,6.7692 5.8084,0.5119 2.2817,5.366 z"
     clip-path="url(#clipPath2)"
     id="path214"
     inkscape:connector-curvature="0"
     style="stroke:none;font-family:sans-serif"
     transform="translate(15,15)" />
  <path
     d="M 293.8245,73.2725 369.7157,48.614"
     clip-path="url(#clipPath2)"
     id="path216"
     inkscape:connector-curvature="0"
     style="fill:none;stroke-linecap:butt;stroke-miterlimit:1.45000005;stroke-dasharray:6, 2;font-family:sans-serif"
     transform="translate(15,15)" />
  <path
     d="m 377.3241,46.1419 -12.9577,-1.0471 4.3982,3.8282 -1.3081,5.6824 z"
     clip-path="url(#clipPath2)"
     id="path218"
     inkscape:connector-curvature="0"
     style="stroke:none;font-family:sans-serif"
     transform="translate(15,15)" />
  <path
     d="M 296.6205,81.8272 372.5182,57.1666"
     clip-path="url(#clipPath2)"
     id="path220"
     inkscape:connector-curvature="0"
     style="fill:none;stroke-linecap:butt;stroke-miterlimit:1.45000005;font-family:sans-serif"
     transform="translate(15,15)" />
  <path
     d="m 380.1266,54.6945 -12.9577,-1.0471 4.3982,3.8282 -1.3081,5.6823 z"
     clip-path="url(#clipPath2)"
     id="path222"
     inkscape:connector-curvature="0"
     style="stroke:none;font-family:sans-serif"
     transform="translate(15,15)" />
  <path
     d="M 447.7957,132.5594 400.2491,67.1171"
     clip-path="url(#clipPath2)"
     id="path228"
     inkscape:connector-curvature="0"
     style="fill:none;stroke:#c0c0c0;stroke-linecap:butt;stroke-miterlimit:1.45000005;font-family:sans-serif"
     transform="translate(15,15)" />
  <path
     d="m 395.5468,60.6449 3.0084,12.6472 2.2817,-5.366 5.8085,-0.5119 z"
     clip-path="url(#clipPath2)"
     id="path230"
     inkscape:connector-curvature="0"
     style="fill:#c0c0c0;stroke:none;font-family:sans-serif"
     transform="translate(15,15)" />
  <g
     style="stroke-linecap:round;stroke-miterlimit:1.45000005;stroke-dasharray:0, 4;stroke-dashoffset:2"
     id="g232"
     stroke-miterlimit="1.45"
     shape-rendering="geometricPrecision"
     text-rendering="geometricPrecision"
     transform="translate(15,15)">
    <path
       style="fill:none"
       inkscape:connector-curvature="0"
       id="path234"
       clip-path="url(#clipPath2)"
       d="m 396.0731,31 0,-21.25 9.75,-9.75 22.75,0 9.75,9.75 0,22.75 -9.75,9.75 -13.25,0" />
    <path
       style="stroke:none"
       inkscape:connector-curvature="0"
       id="path236"
       clip-path="url(#clipPath2)"
       d="m 407.3231,42.25 12,5 -3,-5 3,-5 z" />
    <path
       style="fill:none;stroke-linecap:butt;stroke-dasharray:none;stroke-dashoffset:0"
       inkscape:connector-curvature="0"
       id="path238"
       clip-path="url(#clipPath2)"
       d="m 403.5731,31 0,-15 6,-6 12.75,0 6,6 0,12.75 -6,6 -7,0" />
    <path
       style="stroke:none"
       inkscape:connector-curvature="0"
       id="path240"
       clip-path="url(#clipPath2)"
       d="m 407.3231,34.75 12,5 -3,-5 3,-5 z" />
    <path
       style="fill:none;stroke-linecap:butt;stroke-dasharray:6, 2;stroke-dashoffset:0"
       inkscape:connector-curvature="0"
       id="path242"
       clip-path="url(#clipPath2)"
       d="m 399.8231,31 0,-18.125 7.875,-7.875 17.75,0 7.875,7.875 0,17.75 -7.875,7.875 -10.125,0" />
    <path
       style="stroke:none"
       inkscape:connector-curvature="0"
       id="path244"
       clip-path="url(#clipPath2)"
       d="m 407.3231,38.5 12,5 -3,-5 3,-5 z" />
    <path
       style="fill:none;stroke:#c0c0c0"
       inkscape:connector-curvature="0"
       id="path246"
       clip-path="url(#clipPath2)"
       d="M 387.0782,60.0242 298.0645,182.541" />
    <path
       style="fill:#c0c0c0;stroke:none"
       inkscape:connector-curvature="0"
       id="path248"
       clip-path="url(#clipPath2)"
       d="m 293.3622,189.0132 11.0985,-6.7693 -5.8084,-0.5119 -2.2818,-5.366 z" />
    <path
       style="fill:none;stroke:#c0c0c0"
       inkscape:connector-curvature="0"
       id="path250"
       clip-path="url(#clipPath2)"
       d="m 405.2684,53.6099 47.5466,65.4423" />
    <path
       style="fill:#c0c0c0;stroke:none"
       inkscape:connector-curvature="0"
       id="path252"
       clip-path="url(#clipPath2)"
       d="m 457.5173,125.5243 -3.0084,-12.6471 -2.2817,5.3659 -5.8084,0.5119 z" />
  </g>
  <path
     d="m 296.6057,198.5064 75.8911,24.6585"
     clip-path="url(#clipPath2)"
     id="path256"
     inkscape:connector-curvature="0"
     style="fill:none;stroke:#c0c0c0;stroke-linecap:butt;stroke-miterlimit:1.45000005;stroke-dasharray:6, 2"
     transform="translate(15,15)" />
  <path
     d="m 380.1053,225.6371 -9.8676,-8.4635 1.3081,5.6823 -4.3983,3.8282 z"
     clip-path="url(#clipPath2)"
     id="path258"
     inkscape:connector-curvature="0"
     style="fill:#c0c0c0;stroke:none"
     transform="translate(15,15)" />
  <path
     d="M 290.4373,94.1047 378.804,215.7311"
     clip-path="url(#clipPath2)"
     id="path260"
     inkscape:connector-curvature="0"
     style="fill:none;stroke:#c0c0c0;stroke-linecap:butt;stroke-miterlimit:1.45000005;stroke-dasharray:6, 2"
     transform="translate(15,15)" />
  <path
     d="m 383.5063,222.2032 -3.0083,-12.6471 -2.2818,5.3659 -5.8084,0.5119 z"
     clip-path="url(#clipPath2)"
     id="path262"
     inkscape:connector-curvature="0"
     style="fill:#c0c0c0;stroke:none"
     transform="translate(15,15)" />
  <path
     d="m 294.5775,89.5953 89.8049,123.6059"
     clip-path="url(#clipPath2)"
     id="path264"
     inkscape:connector-curvature="0"
     style="fill:none;stroke:#c0c0c0;stroke-linecap:butt;stroke-miterlimit:1.45000005;stroke-dasharray:none"
     transform="translate(15,15)" />
  <path
     d="m 389.0847,219.6733 -3.0084,-12.6471 -2.2817,5.366 -5.8085,0.5118 z"
     clip-path="url(#clipPath2)"
     id="path266"
     inkscape:connector-curvature="0"
     style="fill:#c0c0c0;stroke:none"
     transform="translate(15,15)" />
  <path
     d="m 451.9243,152.3045 -46.0821,63.4266"
     clip-path="url(#clipPath2)"
     id="path268"
     inkscape:connector-curvature="0"
     style="fill:none;stroke:#c0c0c0;stroke-linecap:butt;stroke-miterlimit:1.45000005;stroke-dasharray:6, 2"
     transform="translate(15,15)" />
  <path
     d="m 401.1399,222.2032 11.0985,-6.7693 -5.8085,-0.5119 -2.2817,-5.3659 z"
     clip-path="url(#clipPath2)"
     id="path270"
     inkscape:connector-curvature="0"
     style="fill:#c0c0c0;stroke:none"
     transform="translate(15,15)" />
  <path
     d="m 457.5172,154.8142 -47.5741,65.4802"
     clip-path="url(#clipPath2)"
     id="path272"
     inkscape:connector-curvature="0"
     style="fill:none;stroke:#c0c0c0;stroke-linecap:butt;stroke-miterlimit:1.45000005;stroke-dasharray:none"
     transform="translate(15,15)" />
  <path
     d="m 405.2408,226.7666 11.0985,-6.7693 -5.8084,-0.5119 -2.2818,-5.366 z"
     clip-path="url(#clipPath2)"
     id="path274"
     inkscape:connector-curvature="0"
     style="fill:#c0c0c0;stroke:none"
     transform="translate(15,15)" />
  <path
     d="m 394.3231,60.8519 0,150.6199"
     clip-path="url(#clipPath2)"
     id="path276"
     inkscape:connector-curvature="0"
     style="fill:none;stroke:#c0c0c0;stroke-linecap:butt;stroke-miterlimit:1.45000005;stroke-dasharray:none"
     transform="translate(15,15)" />
  <path
     d="m 394.3231,219.4718 5,-12 -5,3 -5,-3 z"
     clip-path="url(#clipPath2)"
     id="path278"
     inkscape:connector-curvature="0"
     style="fill:#c0c0c0;stroke:none"
     transform="translate(15,15)" />
  <path
     d="m 388.5731,249.3385 0,21.25 -9.75,9.75 -22.75,0 -9.75,-9.75 0,-22.75 9.75,-9.75 13.25,0"
     clip-path="url(#clipPath2)"
     id="path280"
     inkscape:connector-curvature="0"
     style="fill:none;stroke:#c0c0c0;stroke-linecap:butt;stroke-miterlimit:1.45000005;stroke-dasharray:none"
     transform="translate(15,15)" />
  <path
     d="m 377.3231,238.0885 -12,-5 3,5 -3,5 z"
     clip-path="url(#clipPath2)"
     id="path282"
     inkscape:connector-curvature="0"
     style="fill:#c0c0c0;stroke:none"
     transform="translate(15,15)" />
  <path
     d="m 381.0731,249.3385 0,15 -6,6 -12.75,0 -6,-6 0,-12.75 6,-6 7,0"
     clip-path="url(#clipPath2)"
     id="path284"
     inkscape:connector-curvature="0"
     style="fill:none;stroke:#c0c0c0;stroke-linecap:round;stroke-miterlimit:1.45000005;stroke-dasharray:0, 4;stroke-dashoffset:2"
     transform="translate(15,15)" />
  <path
     d="m 377.3231,245.5885 -12,-5 3,5 -3,5 z"
     clip-path="url(#clipPath2)"
     id="path286"
     inkscape:connector-curvature="0"
     style="fill:#c0c0c0;stroke:none"
     transform="translate(15,15)" />
  <path
     d="m 402.3231,57.1734 0,157.9625"
     clip-path="url(#clipPath2)"
     id="path292"
     inkscape:connector-curvature="0"
     style="fill:none;stroke:#c0c0c0;stroke-linecap:round;stroke-miterlimit:1.45000005;stroke-dasharray:0, 4;stroke-dashoffset:2"
     transform="translate(15,15)" />
  <path
     d="m 402.3231,223.1359 5,-12 -5,3 -5,-3 z"
     clip-path="url(#clipPath2)"
     id="path294"
     inkscape:connector-curvature="0"
     style="fill:#c0c0c0;stroke:none"
     transform="translate(15,15)" />
  <path
     d="m 384.8231,249.3385 0,18.125 -7.875,7.875 -17.75,0 -7.875,-7.875 0,-17.75 7.875,-7.875 10.125,0"
     clip-path="url(#clipPath2)"
     id="path296"
     inkscape:connector-curvature="0"
     style="fill:none;stroke:#c0c0c0;stroke-linecap:butt;stroke-miterlimit:1.45000005;stroke-dasharray:6, 2"
     transform="translate(15,15)" />
  <path
     d="m 377.3231,241.8385 -12,-5 3,5 -3,5 z"
     clip-path="url(#clipPath2)"
     id="path298"
     inkscape:connector-curvature="0"
     style="fill:#c0c0c0;stroke:none"
     transform="translate(15,15)" />
  <path
     d="m 382.3231,223.1651 0,-157.9625"
     clip-path="url(#clipPath2)"
     id="path300"
     inkscape:connector-curvature="0"
     style="fill:none;stroke:#c0c0c0;stroke-linecap:butt;stroke-miterlimit:1.45000005;stroke-dasharray:none"
     transform="translate(15,15)" />
  <path
     d="m 382.3231,57.2026 -5,12 5,-3 5,3 z"
     clip-path="url(#clipPath2)"
     id="path302"
     inkscape:connector-curvature="0"
     style="fill:#c0c0c0;stroke:none"
     transform="translate(15,15)" />
  <path
     d="M 377.3231,234.1963 301.4254,209.5356"
     clip-path="url(#clipPath2)"
     id="path304"
     inkscape:connector-curvature="0"
     style="fill:none;stroke:#c0c0c0;stroke-linecap:round;stroke-miterlimit:1.45000005;stroke-dasharray:0, 4;stroke-dashoffset:2"
     transform="translate(15,15)" />
  <path
     d="m 293.817,207.0635 9.8676,8.4634 -1.3081,-5.6823 4.3982,-3.8282 z"
     clip-path="url(#clipPath2)"
     id="path306"
     inkscape:connector-curvature="0"
     style="fill:#c0c0c0;stroke:none"
     transform="translate(15,15)" />
  <path
     d="M 379.3661,226.7126 289.5612,103.1067"
     clip-path="url(#clipPath2)"
     id="path308"
     inkscape:connector-curvature="0"
     style="fill:none;stroke:#c0c0c0;stroke-linecap:round;stroke-miterlimit:1.45000005;stroke-dasharray:0, 4;stroke-dashoffset:2"
     transform="translate(15,15)" />
  <path
     d="m 284.8589,96.6346 3.0084,12.6471 2.2817,-5.366 5.8085,-0.5119 z"
     clip-path="url(#clipPath2)"
     id="path310"
     inkscape:connector-curvature="0"
     style="fill:#c0c0c0;stroke:none"
     transform="translate(15,15)" />
  <path
     d="m 395.5469,219.6935 47.5742,-65.4802"
     clip-path="url(#clipPath2)"
     id="path312"
     inkscape:connector-curvature="0"
     style="fill:none;stroke:#c0c0c0;stroke-linecap:round;stroke-miterlimit:1.45000005;stroke-dasharray:0, 4;stroke-dashoffset:2"
     transform="translate(15,15)" />
  <path
     d="m 447.8233,147.7411 -11.0985,6.7693 5.8085,0.5119 2.2817,5.366 z"
     clip-path="url(#clipPath2)"
     id="path314"
     inkscape:connector-curvature="0"
     style="fill:#c0c0c0;stroke:none"
     transform="translate(15,15)" />
  <g
     style="fill:#c0c0c0;stroke:#c0c0c0;stroke-linecap:butt;stroke-miterlimit:1.45000005;stroke-dasharray:6, 2"
     id="g322"
     stroke-miterlimit="1.45"
     shape-rendering="geometricPrecision"
     text-rendering="geometricPrecision"
     transform="translate(15,15)">
    <path
       style="fill:none"
       inkscape:connector-curvature="0"
       id="path324"
       clip-path="url(#clipPath2)"
       d="m 386.3231,220.5901 0,-152.8224" />
    <path
       style="stroke:none"
       inkscape:connector-curvature="0"
       id="path326"
       clip-path="url(#clipPath2)"
       d="m 386.3231,59.7677 -5,12 5,-3 5,3 z" />
  </g>
  <path
     d="m 398.3231,59.7483 0,152.8224"
     clip-path="url(#clipPath2)"
     id="path288"
     inkscape:connector-curvature="0"
     style="fill:none;stroke:#000000;stroke-linecap:butt;stroke-miterlimit:1.45000005;stroke-dasharray:6, 2"
     transform="translate(15,15)" />
  <path
     d="m 398.3231,220.5707 5,-12 -5,3 -5,-3 z"
     clip-path="url(#clipPath2)"
     id="path290"
     inkscape:connector-curvature="0"
     style="fill:#000000;stroke:none"
     transform="translate(15,15)" />
  <g
     style="stroke-linecap:round;stroke-miterlimit:1.45000005;stroke-dasharray:0, 4;stroke-dashoffset:2"
     id="g316"
     stroke-miterlimit="1.45"
     shape-rendering="geometricPrecision"
     text-rendering="geometricPrecision"
     transform="translate(15,15)">
    <path
       style="fill:none"
       inkscape:connector-curvature="0"
       id="path318"
       clip-path="url(#clipPath2)"
       d="m 390.3231,219.4866 0,-150.62" />
    <path
       style="stroke:none"
       inkscape:connector-curvature="0"
       id="path320"
       clip-path="url(#clipPath2)"
       d="m 390.3231,60.8666 -5,12 5,-3 5,3 z" />
  </g>
  <path
     d="m 401.1399,58.1353 3.0083,12.6471 2.2817,-5.366 5.8085,-0.5119 z"
     clip-path="url(#clipPath2)"
     id="path226"
     inkscape:connector-curvature="0"
     style="stroke:none;font-family:sans-serif"
     transform="translate(15,15)" />
  <path
     d="M 451.9243,128.034 405.8422,64.6074"
     clip-path="url(#clipPath2)"
     id="path224"
     inkscape:connector-curvature="0"
     style="fill:none;stroke-linecap:butt;stroke-miterlimit:1.45000005;stroke-dasharray:6, 2;font-family:sans-serif"
     transform="translate(15,15)" />
</svg>
