<?xml version="1.0" encoding="UTF-8"?><svg xmlns="http://www.w3.org/2000/svg" xmlns:xlink="http://www.w3.org/1999/xlink" fill-opacity="1" color-rendering="auto" color-interpolation="auto" stroke="black" text-rendering="auto" stroke-linecap="square" width="151" stroke-miterlimit="10" stroke-opacity="1" shape-rendering="auto" fill="black" stroke-dasharray="none" font-weight="normal" stroke-width="1" height="83" font-family="'Dialog'" font-style="normal" stroke-linejoin="miter" font-size="12" stroke-dashoffset="0" image-rendering="auto">
  <!--Generated by ySVG 2.5-->
  <defs id="genericDefs"/>
  <g>
    <defs id="defs1">
      <clipPath clipPathUnits="userSpaceOnUse" id="clipPath1">
        <path d="M0 0 L151 0 L151 83 L0 83 L0 0 Z"/>
      </clipPath>
      <clipPath clipPathUnits="userSpaceOnUse" id="clipPath2">
        <path d="M186 87 L337 87 L337 170 L186 170 L186 87 Z"/>
      </clipPath>
    </defs>
    <g fill="white" text-rendering="geometricPrecision" shape-rendering="geometricPrecision" transform="translate(-186,-87)" stroke="white">
      <rect x="186" width="151" height="83" y="87" clip-path="url(#clipPath2)" stroke="none"/>
    </g>
    <g text-rendering="geometricPrecision" stroke-miterlimit="1.45" shape-rendering="geometricPrecision" font-family="sans-serif" transform="matrix(1,0,0,1,-186,-87)" stroke-linecap="butt">
      <text x="302.8955" xml:space="preserve" y="132.1543" clip-path="url(#clipPath2)" stroke="none">A</text>
      <circle fill="none" r="15" clip-path="url(#clipPath2)" cx="307" cy="128"/>
      <text x="211.8955" xml:space="preserve" y="133.1543" clip-path="url(#clipPath2)" stroke="none">V</text>
      <circle fill="none" r="15" clip-path="url(#clipPath2)" cx="216" cy="129"/>
      <path fill="none" d="M292.9378 122.75 L237.6562 122.75" clip-path="url(#clipPath2)"/>
      <path d="M229.6562 122.75 L241.6562 127.75 L238.6562 122.75 L241.6562 117.75 Z" clip-path="url(#clipPath2)" stroke="none"/>
      <text x="256.6484" xml:space="preserve" y="115.9199" clip-path="url(#clipPath2)" stroke="none">orig</text>
      <path fill="none" d="M293.3438 134.25 L238.0622 134.25" clip-path="url(#clipPath2)"/>
      <path d="M230.0622 134.25 L242.0622 139.25 L239.0622 134.25 L242.0622 129.25 Z" clip-path="url(#clipPath2)" stroke="none"/>
      <text x="253.918" xml:space="preserve" y="149.3887" clip-path="url(#clipPath2)" stroke="none">dest</text>
    </g>
  </g>
</svg>
