<?xml version="1.0" encoding="UTF-8"?><svg xmlns="http://www.w3.org/2000/svg" xmlns:xlink="http://www.w3.org/1999/xlink" fill-opacity="1" color-rendering="auto" color-interpolation="auto" stroke="black" text-rendering="auto" stroke-linecap="square" width="469" stroke-miterlimit="10" stroke-opacity="1" shape-rendering="auto" fill="black" stroke-dasharray="none" font-weight="normal" stroke-width="1" height="194" font-family="'Dialog'" font-style="normal" stroke-linejoin="miter" font-size="12" stroke-dashoffset="0" image-rendering="auto">
  <!--Generated by ySVG 2.5-->
  <defs id="genericDefs"/>
  <g>
    <defs id="defs1">
      <clipPath clipPathUnits="userSpaceOnUse" id="clipPath1">
        <path d="M0 0 L469 0 L469 194 L0 194 L0 0 Z"/>
      </clipPath>
      <clipPath clipPathUnits="userSpaceOnUse" id="clipPath2">
        <path d="M-53 -6 L416 -6 L416 188 L-53 188 L-53 -6 Z"/>
      </clipPath>
    </defs>
    <g fill="white" text-rendering="geometricPrecision" shape-rendering="geometricPrecision" transform="translate(53,6)" stroke="white">
      <rect x="-53" width="469" height="194" y="-6" clip-path="url(#clipPath2)" stroke="none"/>
    </g>
    <g text-rendering="geometricPrecision" stroke-miterlimit="1.45" shape-rendering="geometricPrecision" transform="matrix(1,0,0,1,53,6)" stroke-linecap="butt">
      <circle fill="none" r="15" clip-path="url(#clipPath2)" cx="78.141" cy="24.6366"/>
      <rect fill="none" x="16.1173" width="30" height="30" y="62.1891" clip-path="url(#clipPath2)"/>
      <path fill="none" d="M-37.8705 125.6795 L-22.8705 110.6795 L-7.8705 125.6795 L-22.8705 140.6795 Z" fill-rule="evenodd" clip-path="url(#clipPath2)"/>
      <rect fill="none" x="89.2487" width="30" height="30" y="78.8564" clip-path="url(#clipPath2)"/>
      <circle fill="none" r="15" clip-path="url(#clipPath2)" cx="46.2968" cy="143.4808"/>
      <rect fill="none" x="133.5045" width="30" height="30" y="17.5096" clip-path="url(#clipPath2)"/>
      <circle fill="none" r="15" clip-path="url(#clipPath2)" cx="178.1743" cy="93.8993"/>
      <path fill="none" d="M133.8109 157.0404 L148.8109 142.0404 L163.8109 157.0404 L148.8109 172.0404 Z" fill-rule="evenodd" clip-path="url(#clipPath2)"/>
      <circle fill="none" r="15" clip-path="url(#clipPath2)" cx="306" cy="93.8993"/>
      <path fill="none" d="M348 125.8994 L363 110.8994 L378 125.8994 L363 140.8994 Z" fill-rule="evenodd" clip-path="url(#clipPath2)"/>
      <rect fill="none" x="350" width="30" height="30" y="44.8993" clip-path="url(#clipPath2)"/>
      <path fill="none" stroke-dasharray="6,2" d="M44.5392 62.1891 L62.8042 41.7766" clip-path="url(#clipPath2)"/>
      <path stroke-dasharray="6,2" d="M68.1387 35.8149 L56.4108 41.4234 L62.1374 42.5218 L63.863 48.0916 Z" clip-path="url(#clipPath2)" stroke="none"/>
      <path fill="none" stroke-dasharray="6,2" d="M16.1173 90.6617 L-9.0184 113.2379" clip-path="url(#clipPath2)"/>
      <path stroke-dasharray="6,2" d="M-14.9701 118.5836 L-2.7014 114.2849 L-8.2744 112.5697 L-9.3836 106.8452 Z" clip-path="url(#clipPath2)" stroke="none"/>
      <path fill="none" d="M46.1173 80.6077 L81.4487 88.6601" clip-path="url(#clipPath2)"/>
      <path d="M89.2487 90.4378 L78.6598 82.8962 L80.4737 88.4379 L76.4377 92.6462 Z" clip-path="url(#clipPath2)" stroke="none"/>
      <path fill="none" d="M83.4346 38.6714 L95.7679 71.3711" clip-path="url(#clipPath2)"/>
      <path d="M98.5911 78.8564 L99.0346 65.864 L95.415 70.4355 L89.678 69.393 Z" clip-path="url(#clipPath2)" stroke="none"/>
      <path fill="none" d="M89.2487 106.7009 L63.767 128.521" clip-path="url(#clipPath2)"/>
      <path d="M57.6904 133.7244 L70.0574 129.7172 L64.5265 127.8706 L63.5531 122.1215 Z" clip-path="url(#clipPath2)" stroke="none"/>
      <path fill="none" d="M42.9487 128.8592 L36.3377 99.9873" clip-path="url(#clipPath2)"/>
      <path d="M34.552 92.1891 L32.3566 105.0024 L36.5609 100.9621 L42.1043 102.7704 Z" clip-path="url(#clipPath2)" stroke="none"/>
      <path fill="none" d="M31.7702 139.7421 L-3.197 130.7428" clip-path="url(#clipPath2)"/>
      <path d="M-10.9445 128.7488 L-0.5694 136.5819 L-2.2286 130.992 L1.923 126.8975 Z" clip-path="url(#clipPath2)" stroke="none"/>
      <path fill="none" d="M93.1644 24.3051 L125.5509 27.9288" clip-path="url(#clipPath2)"/>
      <path d="M133.5013 28.8184 L122.1317 22.5151 L124.5571 27.8176 L121.0197 32.453 Z" clip-path="url(#clipPath2)" stroke="none"/>
      <path fill="none" d="M137.6834 47.5096 L119.7502 72.3685" clip-path="url(#clipPath2)"/>
      <path d="M115.0698 78.8564 L126.1454 72.0497 L120.3352 71.5575 L118.0354 66.1992 Z" clip-path="url(#clipPath2)" stroke="none"/>
      <path fill="none" stroke-dasharray="6,2" d="M133.4904 36.8671 L99.0909 33.0181" clip-path="url(#clipPath2)"/>
      <path stroke-dasharray="6,2" d="M91.1405 32.1285 L102.5101 38.4319 L100.0847 33.1293 L103.6221 28.4939 Z" clip-path="url(#clipPath2)" stroke="none"/>
      <path fill="none" d="M155.754 47.5096 L168.166 73.1911" clip-path="url(#clipPath2)"/>
      <path d="M171.6471 80.394 L170.9272 67.4139 L167.7308 72.2907 L161.9236 71.7654 Z" clip-path="url(#clipPath2)" stroke="none"/>
      <path fill="none" stroke-dasharray="6,2" d="M119.2487 93.8651 L155.1743 93.886" clip-path="url(#clipPath2)"/>
      <path stroke-dasharray="6,2" d="M163.1743 93.8906 L151.1772 88.8837 L154.1743 93.8854 L151.1714 98.8837 Z" clip-path="url(#clipPath2)" stroke="none"/>
      <path fill="none" d="M171.8492 107.5005 L156.9427 139.5543" clip-path="url(#clipPath2)"/>
      <path d="M153.5693 146.8083 L163.1631 138.0357 L157.3644 138.6475 L154.0957 133.8189 Z" clip-path="url(#clipPath2)" stroke="none"/>
      <path fill="none" stroke-dasharray="6,2" d="M142.6096 148.2477 L119.4387 115.394" clip-path="url(#clipPath2)"/>
      <path stroke-dasharray="6,2" d="M114.8279 108.8564 L117.6581 121.5446 L120.015 116.2112 L125.8301 115.7811 Z" clip-path="url(#clipPath2)" stroke="none"/>
      <path fill="none" d="M319.0797 101.2424 L346.4595 116.6134" clip-path="url(#clipPath2)"/>
      <path d="M353.4353 120.5297 L345.4192 110.2954 L345.5875 116.1239 L340.5239 119.0152 Z" clip-path="url(#clipPath2)" stroke="none"/>
      <path fill="none" d="M314.9019 81.8445 L343.0734 65.6101" clip-path="url(#clipPath2)"/>
      <path d="M350.0048 61.6157 L337.1111 63.2751 L342.2069 66.1094 L342.1041 71.9394 Z" clip-path="url(#clipPath2)" stroke="none"/>
      <path fill="none" stroke-dasharray="6,2" d="M358.8253 115.0961 L359.8004 82.9165" clip-path="url(#clipPath2)"/>
      <path stroke-dasharray="6,2" d="M360.0428 74.9202 L354.6816 86.7632 L359.7702 83.9161 L364.677 87.0661 Z" clip-path="url(#clipPath2)" stroke="none"/>
      <path fill="none" d="M372.5 44.9015 L372.5 29.8993 L378.5 23.8993 L395 23.8993 L401 29.8993 L401 46.3993 L395 52.3993 L387.9979 52.3993" clip-path="url(#clipPath2)"/>
      <path d="M379.9979 52.3993 L391.9979 57.3993 L388.9979 52.3993 L391.9979 47.3993 Z" clip-path="url(#clipPath2)" stroke="none"/>
      <path fill="none" stroke-dasharray="6,2" d="M369.048 74.8847 L368.0539 107.6901" clip-path="url(#clipPath2)"/>
      <path stroke-dasharray="6,2" d="M367.8116 115.6865 L373.1727 103.8434 L368.0841 106.6906 L363.1773 103.5405 Z" clip-path="url(#clipPath2)" stroke="none"/>
      <path fill="none" d="M350 68.5434 L325.9279 82.4155" clip-path="url(#clipPath2)"/>
      <path d="M318.9965 86.4099 L331.8901 84.7504 L326.7943 81.9162 L326.8971 76.0861 Z" clip-path="url(#clipPath2)" stroke="none"/>
      <path fill="none" stroke-dasharray="6,2" d="M350.9702 74.9093 L327.841 88.238" clip-path="url(#clipPath2)"/>
      <path stroke-dasharray="6,2" d="M320.9095 92.2324 L333.8032 90.5729 L328.7074 87.7387 L328.8102 81.9086 Z" clip-path="url(#clipPath2)" stroke="none"/>
      <path fill="none" stroke-width="2" stroke-dasharray="12,4" d="M211.4997 93.0373 L264.5013 93.8284" clip-path="url(#clipPath2)"/>
      <path stroke-width="2" stroke-dasharray="12,4" d="M273.5003 93.9627 L260.0857 88.1368 L263.3764 93.8116 L259.9178 99.3856 Z" clip-path="url(#clipPath2)" stroke="none"/>
      <text x="238.6973" xml:space="preserve" y="86.5833" font-family="sans-serif" clip-path="url(#clipPath2)" stroke="none">h</text>
    </g>
  </g>
</svg>
