<?xml version="1.0" encoding="UTF-8"?><svg xmlns="http://www.w3.org/2000/svg" xmlns:xlink="http://www.w3.org/1999/xlink" fill-opacity="1" color-rendering="auto" color-interpolation="auto" stroke="black" text-rendering="auto" stroke-linecap="square" width="164" stroke-miterlimit="10" stroke-opacity="1" shape-rendering="auto" fill="black" stroke-dasharray="none" font-weight="normal" stroke-width="1" height="169" font-family="'Dialog'" font-style="normal" stroke-linejoin="miter" font-size="12" stroke-dashoffset="0" image-rendering="auto">
  <!--Generated by ySVG 2.5-->
  <defs id="genericDefs"/>
  <g>
    <defs id="defs1">
      <clipPath clipPathUnits="userSpaceOnUse" id="clipPath1">
        <path d="M0 0 L164 0 L164 169 L0 169 L0 0 Z"/>
      </clipPath>
      <clipPath clipPathUnits="userSpaceOnUse" id="clipPath2">
        <path d="M180 1 L344 1 L344 170 L180 170 L180 1 Z"/>
      </clipPath>
    </defs>
    <g fill="white" text-rendering="geometricPrecision" shape-rendering="geometricPrecision" transform="translate(-180,-1)" stroke="white">
      <rect x="180" width="164" height="169" y="1" clip-path="url(#clipPath2)" stroke="none"/>
    </g>
    <g text-rendering="geometricPrecision" stroke-miterlimit="1.45" shape-rendering="geometricPrecision" font-family="sans-serif" transform="matrix(1,0,0,1,-180,-1)" stroke-linecap="butt">
      <text x="299.0781" xml:space="preserve" y="132.1543" clip-path="url(#clipPath2)" stroke="none">A2</text>
      <circle fill="none" r="15" clip-path="url(#clipPath2)" cx="307" cy="128"/>
      <text x="208.0781" xml:space="preserve" y="133.1543" clip-path="url(#clipPath2)" stroke="none">V2</text>
      <circle fill="none" r="15" clip-path="url(#clipPath2)" cx="216" cy="129"/>
      <text x="299.0781" xml:space="preserve" y="46.1543" clip-path="url(#clipPath2)" stroke="none">A1</text>
      <circle fill="none" r="15" clip-path="url(#clipPath2)" cx="307" cy="42"/>
      <text x="208.0781" xml:space="preserve" y="47.1543" clip-path="url(#clipPath2)" stroke="none">V1</text>
      <circle fill="none" r="15" clip-path="url(#clipPath2)" cx="216" cy="43"/>
      <path fill="none" d="M292.9378 122.75 L237.6562 122.75" clip-path="url(#clipPath2)"/>
      <path d="M229.6562 122.75 L241.6562 127.75 L238.6562 122.75 L241.6562 117.75 Z" clip-path="url(#clipPath2)" stroke="none"/>
      <text x="249.0137" xml:space="preserve" y="115.9199" clip-path="url(#clipPath2)" stroke="none">orig2</text>
      <path fill="none" d="M293.3438 134.25 L238.0622 134.25" clip-path="url(#clipPath2)"/>
      <path d="M230.0622 134.25 L242.0622 139.25 L239.0622 134.25 L242.0622 129.25 Z" clip-path="url(#clipPath2)" stroke="none"/>
      <text x="246.2832" xml:space="preserve" y="149.3887" clip-path="url(#clipPath2)" stroke="none">dest2</text>
      <path fill="none" d="M307 57 L307 105" clip-path="url(#clipPath2)"/>
      <path d="M307 113 L312 101 L307 104 L302 101 Z" clip-path="url(#clipPath2)" stroke="none"/>
      <text x="311" xml:space="preserve" y="89.1543" clip-path="url(#clipPath2)" stroke="none">hA</text>
      <path fill="none" d="M292.9378 36.75 L237.6562 36.75" clip-path="url(#clipPath2)"/>
      <path d="M229.6562 36.75 L241.6562 41.75 L238.6562 36.75 L241.6562 31.75 Z" clip-path="url(#clipPath2)" stroke="none"/>
      <text x="249.0137" xml:space="preserve" y="29.9199" clip-path="url(#clipPath2)" stroke="none">orig1</text>
      <path fill="none" d="M293.3438 48.25 L238.0622 48.25" clip-path="url(#clipPath2)"/>
      <path d="M230.0622 48.25 L242.0622 53.25 L239.0622 48.25 L242.0622 43.25 Z" clip-path="url(#clipPath2)" stroke="none"/>
      <text x="246.2832" xml:space="preserve" y="63.3887" clip-path="url(#clipPath2)" stroke="none">dest1</text>
      <path fill="none" d="M216 58 L216 106" clip-path="url(#clipPath2)"/>
      <path d="M216 114 L221 102 L216 105 L211 102 Z" clip-path="url(#clipPath2)" stroke="none"/>
      <text x="197.1855" xml:space="preserve" y="90.1543" clip-path="url(#clipPath2)" stroke="none">hV</text>
    </g>
  </g>
</svg>
